SplineFontDB: 3.2
FontName: QuasarOpen-Thin
FullName: Quasar Open Thin
FamilyName: Quasar Open
Weight: Thin
Copyright: Copyright (c) 2023, neilb
UComments: "2023-12-15: Created with FontForge (http://fontforge.org)"
Version: 000.001
ItalicAngle: 0
UnderlinePosition: -100
UnderlineWidth: 50
Ascent: 800
Descent: 200
InvalidEm: 0
LayerCount: 2
Layer: 0 0 "Back" 1
Layer: 1 0 "Fore" 0
XUID: [1021 441 2049316168 16478]
StyleMap: 0x0000
FSType: 0
OS2Version: 0
OS2_WeightWidthSlopeOnly: 0
OS2_UseTypoMetrics: 1
CreationTime: 1702635369
ModificationTime: 1728198950
PfmFamily: 17
TTFWeight: 100
TTFWidth: 5
LineGap: 0
VLineGap: 0
OS2TypoAscent: 917
OS2TypoAOffset: 0
OS2TypoDescent: -417
OS2TypoDOffset: 0
OS2TypoLinegap: 0
OS2WinAscent: 840
OS2WinAOffset: 0
OS2WinDescent: 338
OS2WinDOffset: 0
HheadAscent: 917
HheadAOffset: 0
HheadDescent: -417
HheadDOffset: 0
OS2CapHeight: 828
OS2XHeight: 500
OS2Vendor: 'PfEd'
MarkAttachClasses: 1
DEI: 91125
Encoding: UnicodeFull
UnicodeInterp: none
NameList: AGL For New Fonts
DisplaySize: -48
AntiAlias: 1
FitToEm: 1
WinInfo: 16 16 8
BeginPrivate: 0
EndPrivate
Grid
-1000 828 m 0
 2000 828 l 1024
-1000 500.25 m 0
 2000 500.25 l 1024
EndSplineSet
BeginChars: 1114117 172

StartChar: i
Encoding: 105 105 0
Width: 165
Flags: HMW
LayerCount: 2
Fore
SplineSet
58 679 m 0
 58 693 69 704 83 704 c 0
 97 704 108 693 108 679 c 0
 108 665 97 654 83 654 c 0
 69 654 58 665 58 679 c 0
70 500 m 5
 95 500 l 5
 95 0 l 5
 70 0 l 5
 70 500 l 5
EndSplineSet
EndChar

StartChar: o
Encoding: 111 111 1
Width: 608
Flags: HMW
LayerCount: 2
Fore
SplineSet
74 250 m 0
 74 121 170 15 304 15 c 0
 438 15 534 121 534 250 c 0
 534 379 438 485 304 485 c 0
 170 485 74 379 74 250 c 0
49 250 m 0
 49 395 155 510 304 510 c 0
 453 510 559 395 559 250 c 0
 559 105 453 -10 304 -10 c 0
 155 -10 49 105 49 250 c 0
EndSplineSet
EndChar

StartChar: n
Encoding: 110 110 2
Width: 610
Flags: HMW
LayerCount: 2
Back
SplineSet
140 275 m 4
 140 405 245 510 375 510 c 4
 505 510 610 405 610 275 c 4
 610 145 505 40 375 40 c 4
 245 40 140 145 140 275 c 4
165 275 m 0
 165 391 259 485 375 485 c 0
 491 485 585 391 585 275 c 0
 585 159 491 65 375 65 c 0
 259 65 165 159 165 275 c 0
EndSplineSet
Fore
SplineSet
70 268 m 6
 70 415 181 510 305 510 c 4
 429 510 540 414 540 268 c 6
 540 0 l 13
 515 0 l 21
 515 267 l 6
 515 404 411 485 305 485 c 4
 199 485 95 404 95 267 c 6
 95 0 l 13
 70 0 l 21
 70 268 l 6
EndSplineSet
EndChar

StartChar: m
Encoding: 109 109 3
Width: 935
Flags: HMW
LayerCount: 2
Back
SplineSet
525 268 m 2
 525 415 636 510 760 510 c 0
 884 510 995 414 995 268 c 2
 995 0 l 9
 970 0 l 17
 970 267 l 2
 970 404 866 485 760 485 c 0
 654 485 550 404 550 267 c 2
 550 0 l 9
 525 0 l 17
 525 268 l 2
80 268 m 2
 80 415 191 510 315 510 c 0
 439 510 550 414 550 268 c 2
 550 0 l 9
 525 0 l 17
 525 267 l 2
 525 404 421 485 315 485 c 0
 209 485 105 404 105 267 c 2
 105 0 l 9
 80 0 l 17
 80 268 l 2
EndSplineSet
Fore
SplineSet
460 268 m 2
 460 415 538 510 662 510 c 0
 784 510 865 412 865 268 c 2
 865 0 l 9
 840 0 l 17
 840 267 l 2
 840 404 766 485 660 485 c 0
 554 485 480 404 480 267 c 2
 480 0 l 9
 460 0 l 17
 460 268 l 2
70 268 m 2
 70 414 151 510 273 510 c 0
 397 510 475 414 475 268 c 2
 475 0 l 9
 455 0 l 17
 455 267 l 2
 455 404 381 485 275 485 c 0
 169 485 95 404 95 267 c 2
 95 0 l 9
 70 0 l 17
 70 268 l 2
EndSplineSet
EndChar

StartChar: l
Encoding: 108 108 4
Width: 165
Flags: HMW
LayerCount: 2
Fore
SplineSet
70 828 m 1
 95 828 l 1
 95 0 l 1
 70 0 l 1
 70 828 l 1
EndSplineSet
EndChar

StartChar: h
Encoding: 104 104 5
Width: 610
Flags: HMW
LayerCount: 2
Back
SplineSet
140 828 m 1
 165 828 l 1
 165 0 l 1
 140 0 l 1
 140 828 l 1
140 268 m 2
 140 415 251 510 375 510 c 0
 499 510 610 414 610 268 c 2
 610 0 l 9
 585 0 l 17
 585 267 l 2
 585 404 481 485 375 485 c 0
 269 485 165 404 165 267 c 2
 165 230 l 9
 140 230 l 17
 140 268 l 2
EndSplineSet
Fore
SplineSet
70 828 m 1
 95 828 l 1
 95 0 l 1
 70 0 l 1
 70 828 l 1
78 268 m 2
 78 415 175 510 311 510 c 0
 427 510 540 415 540 268 c 2
 540 0 l 9
 515 0 l 17
 515 267 l 2
 515 400 417 485 305 485 c 0
 199 485 95 404 95 267 c 2
 95 230 l 9
 78 230 l 17
 78 268 l 2
EndSplineSet
EndChar

StartChar: g
Encoding: 103 103 6
Width: 557
Flags: HMW
LayerCount: 2
Back
SplineSet
310 475 m 2
 203 475 119 389 119 284 c 3
 119 179 205 93 310 93 c 0
 415 93 501 179 501 284 c 0
 501 333 482 377 452 411 c 1
 485 411 l 1
 511 375 526 331 526 284 c 0
 526 165 429 68 310 68 c 0
 191 68 94 165 94 284 c 0
 94 403 191 500 310 500 c 2
 526 500 l 1
 526 475 l 1
 310 475 l 2
119 -122 m 4
 119 -227 205 -313 310 -313 c 4
 415 -313 501 -227 501 -122 c 4
 501 -17 415 69 310 69 c 4
 205 69 119 -17 119 -122 c 4
94 -122 m 4
 94 -3 191 94 310 94 c 4
 429 94 526 -3 526 -122 c 4
 526 -241 429 -338 310 -338 c 4
 191 -338 94 -241 94 -122 c 4
-1095 -135 m 0
 -1095 -243 -1008 -330 -900 -330 c 0
 -792 -330 -705 -243 -705 -135 c 0
 -705 -27 -792 60 -900 60 c 0
 -1008 60 -1095 -27 -1095 -135 c 0
-1120 -135 m 0
 -1120 -14 -1021 85 -900 85 c 0
 -779 85 -680 -14 -680 -135 c 0
 -680 -256 -779 -355 -900 -355 c 0
 -1021 -355 -1120 -256 -1120 -135 c 0
-709.671875 390 m 1
 -690.817382812 357.591796875 -680 319.998046875 -680 280 c 0
 -680 159 -779 60 -900 60 c 0
 -1021 60 -1120 159 -1120 280 c 0
 -1120 401 -1021 500 -900 500 c 2
 -680 500 l 1
 -680 475 l 1
 -900 475 l 2
 -1008 475 -1095 388 -1095 280 c 0
 -1095 172 -1008 85 -900 85 c 0
 -792 85 -705 172 -705 280 c 0
 -705 320.865234375 -717.456054688 358.723632812 -738.791992188 390 c 1
 -709.671875 390 l 1
696 -170 m 0
 696 -65 772 15 881 15 c 0
 990 15 1066 -65 1066 -170 c 0
 1066 -275 990 -355 881 -355 c 0
 772 -355 696 -275 696 -170 c 0
721 -170 m 0
 721 -259 787 -330 881 -330 c 0
 975 -330 1041 -259 1041 -170 c 0
 1041 -81 975 -10 881 -10 c 0
 787 -10 721 -81 721 -170 c 0
1091.984375 400 m 1
 1120.109375 357.786132812 1136 306.141601562 1136 250 c 0
 1136 105 1030 -10 881 -10 c 0
 732 -10 626 105 626 250 c 0
 626 395 732 500 881 500 c 2
 1136 500 l 1
 1136 475 l 1
 881 475 l 2
 747 475 651 379 651 250 c 0
 651 121 747 15 881 15 c 0
 1015 15 1111 121 1111 250 c 0
 1111 306.829101562 1092.36914062 359.194335938 1060.06640625 400 c 1
 1091.984375 400 l 1
-604 -245 m 0
 -604 -100 -498 15 -349 15 c 0
 -200 15 -94 -100 -94 -245 c 0
 -94 -390 -200 -505 -349 -505 c 0
 -498 -505 -604 -390 -604 -245 c 0
-579 -245 m 0
 -579 -374 -483 -480 -349 -480 c 0
 -215 -480 -119 -374 -119 -245 c 0
 -119 -116 -215 -10 -349 -10 c 0
 -483 -10 -579 -116 -579 -245 c 0
-579 250 m 0
 -579 121 -483 15 -349 15 c 0
 -215 15 -119 121 -119 250 c 0
 -119 379 -215 485 -349 485 c 0
 -483 485 -579 379 -579 250 c 0
-235.715820312 485 m 1
 -149.111328125 443.5078125 -94 354.552734375 -94 250 c 0
 -94 105 -200 -10 -349 -10 c 0
 -498 -10 -604 105 -604 250 c 0
 -604 395 -498 510 -349 510 c 2
 -94 510 l 1
 -94 485 l 1
 -235.715820312 485 l 1
EndSplineSet
Fore
SplineSet
80 -122 m 0
 80 -227 166 -313 271 -313 c 0
 376 -313 462 -227 462 -122 c 0
 462 -17 376 69 271 69 c 0
 166 69 80 -17 80 -122 c 0
55 -122 m 0
 55 -1 152 89 271 89 c 0
 390 89 487 -1 487 -122 c 0
 487 -241 390 -338 271 -338 c 0
 152 -338 55 -241 55 -122 c 0
271 475 m 2
 164 475 80 389 80 284 c 3
 80 179 166 93 271 93 c 0
 376 93 462 179 462 284 c 0
 462 333 443 377 413 411 c 1
 446 411 l 1
 472 375 487 331 487 284 c 0
 487 163 390 73 271 73 c 0
 152 73 55 163 55 284 c 0
 55 403 152 500 271 500 c 2
 487 500 l 1
 487 475 l 1
 271 475 l 2
EndSplineSet
EndChar

StartChar: a
Encoding: 97 97 7
Width: 619
Flags: HMW
LayerCount: 2
Back
SplineSet
115 250 m 0
 115 121 211 15 345 15 c 0
 479 15 575 121 575 250 c 0
 575 379 479 485 345 485 c 0
 211 485 115 379 115 250 c 0
90 250 m 0
 90 395 196 510 345 510 c 0
 494 510 600 395 600 250 c 0
 600 105 494 -10 345 -10 c 0
 196 -10 90 105 90 250 c 0
EndSplineSet
Fore
SplineSet
304 485 m 0
 170 485 74 379 74 250 c 0
 74 121 170 15 304 15 c 0
 366.077148438 15 420 37.7490234375 460 74.9951171875 c 1
 460 41.1787109375 l 1
 417.8984375 8.955078125 364.493164062 -10 304 -10 c 0
 155 -10 49 105 49 250 c 0
 49 395 155 510 304 510 c 0
 428 510 549 419 549 238 c 2
 549 0 l 1
 524 0 l 1
 524 237 l 2
 524 404 413 485 304 485 c 0
EndSplineSet
EndChar

StartChar: r
Encoding: 114 114 8
Width: 442
Flags: HMW
LayerCount: 2
Back
SplineSet
155 250 m 0
 155 121 251 15 385 15 c 0
 519 15 615 121 615 250 c 0
 615 379 519 485 385 485 c 0
 251 485 155 379 155 250 c 0
130 250 m 0
 130 395 236 510 385 510 c 0
 534 510 640 395 640 250 c 0
 640 105 534 -10 385 -10 c 0
 236 -10 130 105 130 250 c 0
EndSplineSet
Fore
SplineSet
326 510 m 3
 342 510 367 508 387 503 c 1
 387 477 l 17
 359 484 340 485 326 485 c 3
 193 485 95 382 95 249 c 2
 95 0 l 9
 70 0 l 17
 70 250 l 2
 70 396 177 510 326 510 c 3
EndSplineSet
EndChar

StartChar: x
Encoding: 120 120 9
Width: 637
Flags: HMW
LayerCount: 2
Back
SplineSet
98 500 m 1
 217 500 320 431 340 313 c 1
 360 431 464 500 583 500 c 1
 583 475 l 1
 449 475 353 379 353 250 c 0
 353 121 449 25 583 25 c 1
 583 0 l 1
 464 0 360 69 340 187 c 1
 320 69 217 0 98 0 c 1
 98 25 l 1
 232 25 328 121 328 250 c 0
 328 379 232 475 98 475 c 1
 98 500 l 1
583 475 m 1
 449 475 353 379 353 250 c 0
 353 121 449 25 583 25 c 1
 583 0 l 1
 434 0 328 105 328 250 c 0
 328 395 434 500 583 500 c 1
 583 475 l 1
98 25 m 1
 232 25 328 121 328 250 c 0
 328 379 232 475 98 475 c 1
 98 500 l 1
 247 500 353 395 353 250 c 0
 353 105 247 0 98 0 c 1
 98 25 l 1
EndSplineSet
Fore
SplineSet
106 485 m 3
 90 485 83 485 70 482 c 9
 70 507 l 1
 81 510 91 510 106 510 c 3
 209 510 326 395 326 250 c 4
 326 105 209 -10 106 -10 c 7
 91 -10 81 -9 70 -6 c 5
 70 19 l 21
 83 16 90 15 106 15 c 7
 194 15 306 121 306 250 c 4
 306 379 194 485 106 485 c 3
531 15 m 7
 547 15 554 15 567 18 c 13
 567 -7 l 5
 556 -10 546 -10 531 -10 c 7
 418 -10 311 105 311 250 c 4
 311 395 418 510 531 510 c 3
 546 510 556 510 567 507 c 1
 567 482 l 17
 554 485 547 485 531 485 c 3
 433 485 331 379 331 250 c 4
 331 121 433 15 531 15 c 7
EndSplineSet
EndChar

StartChar: q
Encoding: 113 113 10
Width: 619
Flags: HMW
LayerCount: 2
Fore
SplineSet
304 485 m 0
 170 485 74 379 74 250 c 0
 74 121 170 15 304 15 c 0
 366.077148438 15 420 37.7490234375 460 74.9951171875 c 1
 460 41.1787109375 l 1
 417.8984375 8.955078125 364.493164062 -10 304 -10 c 0
 155 -10 49 105 49 250 c 0
 49 395 155 510 304 510 c 0
 428 510 549 419 549 238 c 2
 549 -328 l 1
 524 -328 l 1
 524 237 l 2
 524 404 413 485 304 485 c 0
EndSplineSet
EndChar

StartChar: e
Encoding: 101 101 15
Width: 629
Flags: HMW
LayerCount: 2
Back
SplineSet
115 250 m 0
 115 121 211 15 345 15 c 0
 479 15 575 121 575 250 c 0
 575 379 479 485 345 485 c 0
 211 485 115 379 115 250 c 0
90 250 m 0
 90 395 196 510 345 510 c 0
 494 510 600 395 600 250 c 0
 600 105 494 -10 345 -10 c 0
 196 -10 90 105 90 250 c 0
EndSplineSet
Fore
SplineSet
304 25 m 2
 559 25 l 1
 559 0 l 1
 304 0 l 2
 155 0 49 105 49 250 c 3
 49 395 155 510 304 510 c 3
 453 510 559 395 559 250 c 3
 559 188.881835938 540.166992188 133.092773438 507.219726562 89 c 1
 473.774414062 89 l 1
 511.770507812 131.174804688 534 187.924804688 534 250 c 3
 534 379 438 485 304 485 c 3
 170 485 74 379 74 250 c 3
 74 121 170 25 304 25 c 2
  Spiro
    304 25 [
    559 25 v
    559 0 v
    304 0 ]
    171.78 32.5298 o
    81.9364 120.852 o
    49 250 o
    81.9364 381.736 o
    171.78 474.882 o
    304 510 o
    436.22 474.882 o
    526.064 381.736 o
    559 250 o
    552.909 190.951 o
    535.264 136.705 o
    507.22 89 v
    473.774 89 v
    506.249 135.64 o
    526.844 190.1 o
    534 250 o
    504.206 368.155 o
    423.083 452.802 o
    304 485 o
    184.917 452.802 o
    103.794 368.155 o
    74 250 o
    103.794 134.433 o
    184.917 54.6097 o
    0 0 z
  EndSpiro
EndSplineSet
EndChar

StartChar: y
Encoding: 121 121 16
Width: 610
Flags: HMW
LayerCount: 2
Back
SplineSet
125 -78 m 0
 125 -207 221 -313 355 -313 c 0
 489 -313 585 -207 585 -78 c 0
 585 51 489 157 355 157 c 0
 221 157 125 51 125 -78 c 0
100 -78 m 0
 100 67 206 182 355 182 c 0
 504 182 610 67 610 -78 c 0
 610 -223 504 -338 355 -338 c 0
 206 -338 100 -223 100 -78 c 0
EndSplineSet
Fore
SplineSet
532 232 m 2
 532 85 435 -10 299 -10 c 0
 183 -10 70 85 70 232 c 2
 70 500 l 9
 95 500 l 17
 95 233 l 2
 95 100 193 15 305 15 c 0
 411 15 515 96 515 233 c 2
 515 270 l 9
 532 270 l 17
 532 232 l 2
143 -266 m 1
 178 -293 227 -313 285 -313 c 3
 419 -313 515 -207 515 -78 c 2
 515 500 l 1
 540 500 l 1
 540 -78 l 2
 540 -223 434 -338 285 -338 c 3
 228 -338 184 -323 143 -297 c 1
 143 -266 l 1
EndSplineSet
EndChar

StartChar: w
Encoding: 119 119 17
Width: 935
Flags: HMW
LayerCount: 2
Back
SplineSet
535 242 m 2
 535 95 439 0 315 0 c 2
 130 0 l 9
 130 500 l 9
 155 500 l 17
 155 25 l 17
 315 25 l 2
 421 25 515 106 515 243 c 2
 515 500 l 9
 535 500 l 17
 535 242 l 2
EndSplineSet
Fore
SplineSet
475 242 m 2
 475 95 379 0 255 0 c 2
 70 0 l 9
 70 500 l 9
 95 500 l 17
 95 25 l 17
 255 25 l 2
 361 25 455 106 455 243 c 2
 455 500 l 9
 475 500 l 17
 475 242 l 2
865 232 m 2
 865 86 784 -10 662 -10 c 0
 538 -10 460 86 460 232 c 2
 460 500 l 9
 480 500 l 17
 480 233 l 2
 480 96 554 15 660 15 c 0
 766 15 840 96 840 233 c 2
 840 500 l 9
 865 500 l 17
 865 232 l 2
EndSplineSet
EndChar

StartChar: uni0261
Encoding: 609 609 18
Width: 619
Flags: HMW
LayerCount: 2
Back
SplineSet
18 -60 m 0
 18 80 131 193 271 193 c 0
 411 193 524 80 524 -60 c 0
 524 -200 411 -313 271 -313 c 0
 131 -313 18 -200 18 -60 c 0
EndSplineSet
Fore
SplineSet
524 -58 m 2
 524 237 l 2
 524 404 413 485 304 485 c 0
 170 485 74 379 74 250 c 0
 74 121 170 15 304 15 c 0
 366.077148438 15 420 37.7490234375 460 74.9951171875 c 1
 460 41.1787109375 l 1
 417.8984375 8.955078125 364.493164062 -10 304 -10 c 0
 155 -10 49 105 49 250 c 0
 49 395 155 510 304 510 c 0
 428 510 549 419 549 238 c 2
 549 -58 l 2
 549 -213 429 -338 269 -338 c 3
 212 -338 163 -321 122 -296 c 1
 122 -264 l 1
 157 -291 211 -313 269 -313 c 3
 415 -313 524 -197 524 -58 c 2
EndSplineSet
EndChar

StartChar: f
Encoding: 102 102 19
Width: 457
Flags: HMW
LayerCount: 2
Fore
SplineSet
326 838 m 0
 342 838 367 836 387 831 c 1
 387 805 l 1
 359 812 340 813 326 813 c 0
 193 813 95 710 95 577 c 2
 95 500 l 1
 382 500 l 1
 382 475 l 1
 95 475 l 1
 95 0 l 1
 70 0 l 1
 70 578 l 2
 70 724 177 838 326 838 c 0
EndSplineSet
EndChar

StartChar: t
Encoding: 116 116 20
Width: 457
Flags: HMW
LayerCount: 2
Fore
SplineSet
326 -10 m 0
 177 -10 70 104 70 250 c 2
 70 679 l 1
 95 679 l 1
 95 500 l 1
 382 500 l 1
 382 475 l 1
 95 475 l 1
 95 251 l 2
 95 118 193 15 326 15 c 0
 340 15 359 16 387 23 c 1
 387 -3 l 1
 367 -8 342 -10 326 -10 c 0
EndSplineSet
EndChar

StartChar: j
Encoding: 106 106 21
Width: 401
Flags: HMW
LayerCount: 2
Back
SplineSet
339 669 m 4
 339 683 350 694 364 694 c 4
 378 694 389 683 389 669 c 4
 389 655 378 644 364 644 c 4
 350 644 339 655 339 669 c 4
352 -328 m 29
 352 500 l 5
 377 500 l 5
 377 -328 l 29
 352 -328 l 29
EndSplineSet
Fore
SplineSet
307 500 m 1
 332 500 l 1
 332 -78 l 2
 332 -224 225 -338 76 -338 c 0
 60 -338 35 -336 15 -331 c 1
 15 -305 l 1
 43 -312 62 -313 76 -313 c 0
 209 -313 307 -210 307 -77 c 2
 307 500 l 1
294 679 m 0
 294 693 305 704 319 704 c 0
 333 704 344 693 344 679 c 0
 344 665 333 654 319 654 c 0
 305 654 294 665 294 679 c 0
EndSplineSet
EndChar

StartChar: c
Encoding: 99 99 22
Width: 436
Flags: HMW
LayerCount: 2
Back
SplineSet
346 510 m 7
 362 510 387 508 407 503 c 5
 407 477 l 21
 379 484 360 485 346 485 c 7
 213 485 115 382 115 249 c 2
 115 0 l 9
 90 0 l 17
 90 250 l 2
 90 396 197 510 346 510 c 7
EndSplineSet
Fore
SplineSet
305 15 m 3
 319 15 338 16 366 23 c 9
 366 -3 l 1
 346 -8 321 -10 305 -10 c 3
 156 -10 49 105 49 250 c 0
 49 395 156 510 305 510 c 3
 321 510 346 508 366 503 c 1
 366 477 l 17
 338 484 319 485 305 485 c 3
 171 485 74 379 74 250 c 0
 74 121 171 15 305 15 c 3
EndSplineSet
EndChar

StartChar: s
Encoding: 115 115 23
Width: 579
Flags: HMW
LayerCount: 2
Back
SplineSet
281 288 m 0
 281 397 369 485 478 485 c 0
 587 485 675 397 675 288 c 0
 675 179 587 91 478 91 c 0
 369 91 281 179 281 288 c 0
309 316 m 0
 309 409 385 485 478 485 c 0
 571 485 647 409 647 316 c 0
 647 223 571 147 478 147 c 0
 385 147 309 223 309 316 c 0
332 339 m 0
 332 420 397 485 478 485 c 0
 559 485 624 420 624 339 c 0
 624 258 559 193 478 193 c 0
 397 193 332 258 332 339 c 0
EndSplineSet
Fore
SplineSet
277 250 m 19
 277 396 334 510 463 510 c 3
 479 510 504 508 524 503 c 1
 524 477 l 17
 496 484 477 485 463 485 c 3
 350 485 302 382 302 249 c 3
 302 103 255 -11 116 -11 c 3
 100 -11 75 -9 55 -4 c 1
 55 22 l 17
 83 15 102 14 116 14 c 3
 239 14 277 121 277 250 c 19
EndSplineSet
EndChar

StartChar: v
Encoding: 118 118 24
Width: 570
Flags: HMW
LayerCount: 2
Fore
SplineSet
500 242 m 2
 500 95 389 0 265 0 c 2
 70 0 l 9
 70 500 l 9
 95 500 l 17
 95 25 l 17
 265 25 l 2
 371 25 475 106 475 243 c 2
 475 500 l 9
 500 500 l 17
 500 242 l 2
EndSplineSet
EndChar

StartChar: k
Encoding: 107 107 26
Width: 495
Flags: HMW
LayerCount: 2
Fore
SplineSet
185 247 m 2
 81 247 l 9
 81 267 l 17
 185 267 l 2
 291 267 405 348 405 485 c 2
 405 500 l 9
 430 500 l 17
 430 484 l 2
 430 338 309 247 185 247 c 2
185 262 m 2
 309 262 430 171 430 25 c 2
 430 -1 l 9
 405 -1 l 17
 405 24 l 2
 405 161 291 242 185 242 c 2
 81 242 l 9
 81 262 l 17
 185 262 l 2
70 828 m 1
 95 828 l 1
 95 0 l 1
 70 0 l 1
 70 828 l 1
EndSplineSet
EndChar

StartChar: z
Encoding: 122 122 27
Width: 430
Flags: HMW
LayerCount: 2
Back
SplineSet
-12 -122 m 0
 -12 -227 74 -313 179 -313 c 0
 284 -313 370 -227 370 -122 c 0
 370 -17 284 69 179 69 c 0
 74 69 -12 -17 -12 -122 c 0
-37 -122 m 0
 -37 -1 60 89 179 89 c 0
 298 89 395 -1 395 -122 c 0
 395 -241 298 -338 179 -338 c 0
 60 -338 -37 -241 -37 -122 c 0
396 -78 m 17
 396 -223 290 -338 141 -338 c 3
 84 -338 40 -323 -1 -297 c 1
 -1 -265 l 1
 34 -293 83 -313 141 -313 c 3
 275 -313 371 -207 371 -78 c 1
 396 -78 l 17
EndSplineSet
Fore
SplineSet
72 490 m 1
 93 501 123 510 160 510 c 0
 279 510 375 410 375 291 c 0
 375 170 278 80 159 80 c 2
 79 80 l 5
 79 98 l 5
 129 98 l 2
 274 98 350 186 350 291 c 0
 350 396 265 485 160 485 c 0
 118 485 96 476 72 464 c 1
 72 490 l 1
70 -318 m 1
 70 -292 l 1
 94 -304 116 -313 158 -313 c 3
 263 -313 350 -225 350 -120 c 0
 350 -15 274 73 129 73 c 2
 79 73 l 5
 79 91 l 5
 159 91 l 2
 278 91 375 1 375 -120 c 0
 375 -239 277 -338 158 -338 c 3
 121 -338 91 -329 70 -318 c 1
EndSplineSet
EndChar

StartChar: .notdef
Encoding: 1114112 -1 28
Width: 652
Flags: HMW
LayerCount: 2
Back
SplineSet
575 802 m 5
 99 6 l 5
 79 26 l 5
 557 822 l 5
 575 802 l 5
79 802 m 5
 97 822 l 5
 575 26 l 5
 555 6 l 5
 79 802 l 5
95 803 m 1
 95 25 l 1
 557 25 l 1
 557 803 l 1
 95 803 l 1
70 828 m 1
 582 828 l 1
 582 0 l 1
 70 0 l 1
 70 828 l 1
EndSplineSet
Fore
SplineSet
575 802 m 1
 99 6 l 1
 79 26 l 1
 557 822 l 1
 575 802 l 1
79 802 m 1
 97 822 l 1
 575 26 l 1
 555 6 l 1
 79 802 l 1
95 803 m 1
 95 25 l 1
 557 25 l 1
 557 803 l 1
 95 803 l 1
70 828 m 1
 582 828 l 1
 582 0 l 1
 70 0 l 1
 70 828 l 1
EndSplineSet
EndChar

StartChar: period
Encoding: 46 46 29
Width: 240
Flags: HMW
LayerCount: 2
Fore
SplineSet
90 20 m 0
 90 37 103 50 120 50 c 0
 137 50 150 37 150 20 c 0
 150 3 137 -10 120 -10 c 0
 103 -10 90 3 90 20 c 0
EndSplineSet
EndChar

StartChar: comma
Encoding: 44 44 30
Width: 240
Flags: HMW
LayerCount: 2
Back
SplineSet
49 0 m 0
 49 28 71 50 99 50 c 0
 127 50 149 28 149 0 c 0
 149 -28 127 -50 99 -50 c 0
 71 -50 49 -28 49 0 c 0
59 5 m 0
 59 30 79 50 104 50 c 0
 129 50 149 30 149 5 c 0
 149 -20 129 -40 104 -40 c 0
 79 -40 59 -20 59 5 c 0
59 -10 m 0
 59 23 86 50 119 50 c 0
 152 50 179 23 179 -10 c 0
 179 -43 152 -70 119 -70 c 0
 86 -70 59 -43 59 -10 c 0
89 20 m 0
 89 37 102 50 119 50 c 0
 136 50 149 37 149 20 c 0
 149 3 136 -10 119 -10 c 0
 102 -10 89 3 89 20 c 0
EndSplineSet
Fore
SplineSet
89 20 m 0
 89 37 102 50 119 50 c 0
 139 50 151 34 151 4 c 0
 151 -28 134 -55 119 -55 c 1
 119 -10 l 1
 102 -10 89 3 89 20 c 0
EndSplineSet
EndChar

StartChar: question
Encoding: 63 63 34
Width: 480
Flags: HMW
LayerCount: 2
Back
SplineSet
161 20 m 4
 161 37 174 50 191 50 c 4
 208 50 221 37 221 20 c 4
 221 3 208 -10 191 -10 c 4
 174 -10 161 3 161 20 c 4
203 431 m 5
 203 205 l 5
 178 205 l 5
 178 431 l 5
 203 431 l 5
190 431 m 21
 295 431 381 517 381 622 c 4
 381 727 295 813 190 813 c 4
 145.573242188 813 104.548828125 797.604492188 72 771.887695312 c 5
 72 803.298828125 l 5
 105.953125 825.309570312 146.5078125 838 190 838 c 4
 309 838 406 743 406 622 c 4
 406 503 309 406 190 406 c 13
 190 431 l 21
-1 622 m 0
 -1 517 85 431 190 431 c 0
 295 431 381 517 381 622 c 0
 381 727 295 813 190 813 c 0
 85 813 -1 727 -1 622 c 0
-26 622 m 0
 -26 743 71 838 190 838 c 0
 309 838 406 743 406 622 c 0
 406 503 309 406 190 406 c 0
 71 406 -26 503 -26 622 c 0
EndSplineSet
Fore
SplineSet
445 578 m 0
 445 433 338 318 189 318 c 0
 170.970748856 318 144.448224024 320.888967657 128 325 c 1
 128 351 l 1
 156 344 175 343 189 343 c 0
 323 343 420 449 420 578 c 0
 420 707 324 813 190 813 c 0
 132 813 83 793 48 766 c 1
 48 797 l 1
 89 823 133 838 190 838 c 0
 339 838 445 720 445 578 c 0
128 343 m 1
 153 343 l 1
 153 205 l 1
 128 205 l 1
 128 343 l 1
111 20 m 0
 111 37 124 50 141 50 c 0
 158 50 171 37 171 20 c 0
 171 3 158 -10 141 -10 c 0
 124 -10 111 3 111 20 c 0
EndSplineSet
EndChar

StartChar: if
Encoding: 58992 58992 36
Width: 165
Flags: MW
LayerCount: 2
Fore
SplineSet
70 500 m 5
 95 500 l 5
 95 0 l 5
 70 0 l 5
 70 500 l 5
EndSplineSet
EndChar

StartChar: axe
Encoding: 58987 58987 48
Width: 630
Flags: HMW
LayerCount: 2
Fore
SplineSet
315 247 m 0
 439 247 560 338 560 484 c 2
 560 500 l 9
 535 500 l 17
 535 485 l 2
 535 348 421 267 315 267 c 3
 209 267 95 348 95 485 c 2
 95 828 l 9
 70 828 l 17
 70 484 l 2
 70 338 191 247 315 247 c 0
315 242 m 0
 421 242 535 161 535 24 c 2
 535 -1 l 9
 560 -1 l 17
 560 25 l 2
 560 171 439 262 315 262 c 3
 191 262 70 171 70 25 c 2
 70 -1 l 9
 95 -1 l 17
 95 24 l 2
 95 161 209 242 315 242 c 0
EndSplineSet
EndChar

StartChar: eat
Encoding: 58993 58993 50
Width: 570
Flags: HMW
LayerCount: 2
Back
SplineSet
70 258 m 6
 70 405 181 500 305 500 c 6
 460 500 l 13
 460 0 l 13
 435 0 l 21
 435 475 l 21
 305 475 l 6
 199 475 95 394 95 257 c 6
 95 0 l 13
 70 0 l 21
 70 258 l 6
EndSplineSet
Fore
Refer: 24 118 N -1 0 0 -1 570 500 2
EndChar

StartChar: haha
Encoding: 58978 58978 51
Width: 442
Flags: HMW
LayerCount: 2
Fore
SplineSet
95 0 m 1
 70 0 l 1
 70 578 l 2
 70 724 177 838 326 838 c 0
 342 838 367 836 387 831 c 1
 387 805 l 1
 359 812 340 813 326 813 c 0
 193 813 95 710 95 577 c 2
 95 0 l 1
EndSplineSet
EndChar

StartChar: shush
Encoding: 58972 58972 53
Width: 442
Flags: HMW
LayerCount: 2
Fore
SplineSet
95 828 m 1
 95 251 l 2
 95 118 193 15 326 15 c 0
 340 15 359 16 387 23 c 1
 387 -3 l 1
 367 -8 342 -10 326 -10 c 0
 177 -10 70 104 70 250 c 2
 70 828 l 1
 95 828 l 1
EndSplineSet
EndChar

StartChar: thoth
Encoding: 58966 58966 54
Width: 457
Flags: HMW
LayerCount: 2
Fore
SplineSet
362 251 m 2
 362 577 l 2
 362 710 264 813 131 813 c 0
 117 813 98 812 70 805 c 1
 70 831 l 1
 90 836 115 838 131 838 c 0
 280 838 387 724 387 578 c 2
 387 250 l 2
 387 104 280 -10 131 -10 c 0
 115 -10 90 -8 70 -3 c 1
 70 23 l 1
 98 16 117 15 131 15 c 0
 264 15 362 118 362 251 c 2
EndSplineSet
EndChar

StartChar: sis
Encoding: 58970 58970 57
Width: 579
Flags: HMW
LayerCount: 2
Fore
SplineSet
277 251 m 2
 277 578 l 2
 277 724 334 838 463 838 c 3
 479 838 504 836 524 831 c 1
 524 805 l 17
 496 812 477 813 463 813 c 3
 350 813 302 710 302 577 c 2
 302 250 l 2
 302 104 255 -10 116 -10 c 3
 100 -10 75 -8 55 -3 c 1
 55 23 l 17
 83 16 102 15 116 15 c 3
 239 15 277 140 277 251 c 2
EndSplineSet
EndChar

StartChar: zhivago
Encoding: 58973 58973 60
Width: 552
Flags: HMW
LayerCount: 2
Fore
SplineSet
457 250 m 2
 457 379 361 485 227 485 c 3
 169 485 120 465 85 437 c 1
 85 469 l 1
 126 495 170 510 227 510 c 3
 376 510 482 395 482 250 c 2
 481 -122 l 2
 481 -241 384 -338 265 -338 c 0
 146 -338 49 -241 49 -122 c 0
 49 -3 146 94 265 94 c 0
 312 94 356 79 392 53 c 1
 392 20 l 1
 358 50 314 69 265 69 c 0
 160 69 74 -17 74 -122 c 0
 74 -227 160 -313 265 -313 c 0
 370 -313 456 -227 456 -122 c 2
 457 250 l 2
EndSplineSet
EndChar

StartChar: bob
Encoding: 58961 58961 61
Width: 551
Flags: HMW
LayerCount: 2
Fore
SplineSet
265 -313 m 0
 370 -313 456 -227 456 -122 c 2
 456 500 l 1
 481 500 l 1
 481 -122 l 2
 481 -241 384 -338 265 -338 c 0
 146 -338 49 -241 49 -122 c 0
 49 -3 146 94 265 94 c 0
 312 94 356 79 392 53 c 1
 392 20 l 1
 358 50 314 69 265 69 c 0
 160 69 74 -17 74 -122 c 0
 74 -227 160 -313 265 -313 c 0
EndSplineSet
EndChar

StartChar: loch
Encoding: 58985 58985 63
Width: 634
Flags: HMW
LayerCount: 2
Back
SplineSet
539 255 m 2
 539 384 453 485 324 485 c 9
 324 510 l 17
 468 510 564 400 564 255 c 10
 564 0 l 25
 539 0 l 25
 539 255 l 2
299 828 m 1
 324 828 l 1
 324 0 l 1
 299 0 l 1
 299 828 l 1
299 485 m 17
 165 485 74 384 74 255 c 0
 74 126 165 25 299 25 c 9
 299 0 l 17
 150 0 49 110 49 255 c 0
 49 400 150 510 299 510 c 9
 299 485 l 17
-295 15 m 1
 -294 15 -295 15 -294 15 c 1
 -162 17 -67 117 -67 245 c 0
 -67 374 -163 475 -297 475 c 0
 -359 475 l 1
 -359 500 l 1
 -297 500 l 0
 -148 500 -42 390 -42 245 c 0
 -42 101 -147 -8 -294 -10 c 1
 -295 -10 -294 -10 -295 -10 c 1
 -295 15 l 1
-384 828 m 1
 -359 828 l 1
 -359 0 l 1
 -384 0 l 1
 -384 828 l 1
-446 25 m 0
 -384 25 l 9
 -384 0 l 1
 -446 0 l 3
 -595 0 -701 105 -701 250 c 0
 -701 395 -594 500 -445 500 c 0
 -384 500 l 1
 -384 475 l 17
 -445 475 l 3
 -579 475 -676 379 -676 250 c 0
 -676 121 -580 25 -446 25 c 0
EndSplineSet
Fore
SplineSet
299 485 m 1
 165 485 74 384 74 255 c 0
 74 126 165 25 299 25 c 1
 299 0 l 1
 150 0 49 110 49 255 c 0
 49 400 150 510 299 510 c 1
 299 485 l 1
299 828 m 1
 324 828 l 1
 324 0 l 1
 299 0 l 1
 299 828 l 1
388 26 m 1
 486 53 549 145 549 252 c 0
 549 381 458 485 324 485 c 1
 324 510 l 1
 473 510 574 397 574 252 c 0
 574 129 501 27 388 0 c 1
 388 26 l 1
EndSplineSet
EndChar

StartChar: deed
Encoding: 58963 58963 65
Width: 442
Flags: MW
LayerCount: 2
Fore
SplineSet
70 500 m 1
 95 500 l 1
 95 -328 l 5
 70 -328 l 1
 70 500 l 1
332 25 m 3
 348 25 367 23 387 18 c 1
 387 -8 l 17
 359 -1 340 0 326 0 c 3
 193 0 95 -95 95 -228 c 2
 95 -258 l 9
 78 -258 l 17
 78 -227 l 2
 78 -81 183 25 332 25 c 3
EndSplineSet
EndChar

StartChar: church
Encoding: 58974 58974 66
Width: 719
Flags: MW
LayerCount: 2
Fore
SplineSet
110 475 m 3
 94 475 75 477 55 482 c 1
 55 508 l 17
 83 501 102 500 116 500 c 3
 249 500 347 595 347 728 c 2
 347 758 l 9
 364 758 l 17
 364 727 l 2
 364 581 259 475 110 475 c 3
372 828 m 1
 372 251 l 2
 372 118 470 15 603 15 c 0
 617 15 636 16 664 23 c 1
 664 -3 l 1
 644 -8 619 -10 603 -10 c 0
 454 -10 347 104 347 250 c 2
 347 828 l 1
 372 828 l 1
EndSplineSet
EndChar

StartChar: inkling
Encoding: 58980 58980 68
Width: 572
Flags: MW
LayerCount: 2
Back
SplineSet
70 215 m 22
 70 336 167 426 286 426 c 4
 405 426 502 336 502 215 c 14
 502 0 l 13
 477 0 l 21
 477 214 l 22
 477 319 391 406 286 406 c 4
 181 406 95 319 95 214 c 14
 95 0 l 13
 70 0 l 21
 70 215 l 22
477 622 m 4
 477 727 391 813 286 813 c 4
 181 813 95 727 95 622 c 4
 95 517 181 431 286 431 c 4
 391 431 477 517 477 622 c 4
502 622 m 4
 502 501 405 411 286 411 c 4
 167 411 70 501 70 622 c 4
 70 741 167 838 286 838 c 4
 405 838 502 741 502 622 c 4
607 83 m 18
 607 228 713 338 862 338 c 0
 1011 338 1117 228 1117 83 c 10
 1117 0 l 9
 1092 0 l 17
 1092 82 l 18
 1092 211 996 318 862 318 c 0
 728 318 632 211 632 82 c 10
 632 0 l 9
 607 0 l 17
 607 83 l 18
  Spiro
    1092 82 ]
    1062.21 200.414 o
    981.083 285.543 o
    862 318 o
    742.917 285.543 o
    661.794 200.414 o
    632 82 [
    632 0 v
    607 0 v
    607 83 ]
    639.936 213.442 o
    729.78 304.176 o
    862 338 o
    994.22 304.176 o
    1084.06 213.442 o
    1117 83 [
    1117 0 v
    1092 0 v
    0 0 z
  EndSpiro
1092 578 m 0
 1092 707 996 813 862 813 c 0
 728 813 632 707 632 578 c 0
 632 449 728 343 862 343 c 0
 996 343 1092 449 1092 578 c 0
  Spiro
    632 578 o
    661.794 459.845 o
    742.917 375.198 o
    862 343 o
    981.083 375.198 o
    1062.21 459.845 o
    1092 578 o
    1062.21 696.155 o
    981.083 780.802 o
    862 813 o
    742.917 780.802 o
    661.794 696.155 o
    0 0 z
  EndSpiro
1117 578 m 0
 1117 433 1011 323 862 323 c 0
 713 323 607 433 607 578 c 0
 607 723 713 838 862 838 c 0
 1011 838 1117 723 1117 578 c 0
  Spiro
    607 578 o
    639.936 709.736 o
    729.78 802.882 o
    862 838 o
    994.22 802.882 o
    1084.06 709.736 o
    1117 578 o
    1084.06 447.558 o
    994.22 356.824 o
    862 323 o
    729.78 356.824 o
    639.936 447.558 o
    0 0 z
  EndSpiro
EndSplineSet
Fore
SplineSet
477 622 m 2
 477 727 391 813 286 813 c 0
 181 813 95 727 95 622 c 2
 95 400 l 2
 95 296 181 208 286 208 c 0
 391 208 477 296 477 400 c 2
 477 622 l 2
70 622 m 2
 70 741 167 838 286 838 c 0
 405 838 502 741 502 622 c 2
 502 399 l 2
 502 279 405 188 286 188 c 0
 167 188 70 279 70 399 c 2
 70 622 l 2
70 2 m 18
 70 123 167 213 286 213 c 0
 405 213 502 123 502 2 c 10
 502 0 l 9
 477 0 l 17
 477 1 l 18
 477 106 391 193 286 193 c 0
 181 193 95 106 95 1 c 10
 95 0 l 9
 70 0 l 17
 70 2 l 18
EndSplineSet
EndChar

StartChar: nun
Encoding: 58982 58982 69
Width: 500
Flags: MW
LayerCount: 2
Back
SplineSet
70 170 m 4
 70 269 151 350 250 350 c 4
 349 350 430 269 430 170 c 4
 430 71 349 -10 250 -10 c 4
 151 -10 70 71 70 170 c 4
95 170 m 0
 95 256 164 325 250 325 c 0
 336 325 405 256 405 170 c 0
 405 84 336 15 250 15 c 0
 164 15 95 84 95 170 c 0
EndSplineSet
Fore
SplineSet
95 499 m 18
 95 394 165 344 250 344 c 0
 335 344 405 394 405 499 c 10
 405 500 l 9
 430 500 l 17
 430 498 l 18
 430 377 349 324 250 324 c 0
 151 324 70 377 70 498 c 10
 70 500 l 9
 95 500 l 17
 95 499 l 18
95 169 m 0
 95 84 165 15 250 15 c 0
 335 15 405 84 405 169 c 0
 405 256 335 324 250 324 c 0
 165 324 95 256 95 169 c 0
70 169 m 0
 70 270 151 344 250 344 c 0
 349 344 430 270 430 169 c 0
 430 69 347 -10 250 -10 c 0
 153 -10 70 69 70 169 c 0
EndSplineSet
EndChar

StartChar: pipe
Encoding: 58960 58960 70
Width: 572
Flags: MW
LayerCount: 2
Fore
SplineSet
70 596 m 18
 70 715 167 813 286 813 c 0
 405 813 502 715 502 596 c 2
 502 0 l 1
 477 0 l 1
 477 595 l 2
 477 700 391 786 286 786 c 0
 181 786 95 700 95 595 c 2
 95 475 l 9
 70 475 l 1
 70 596 l 18
EndSplineSet
EndChar

StartChar: kick
Encoding: 58964 58964 71
Width: 436
Flags: MW
LayerCount: 2
Fore
SplineSet
110 838 m 3
 259 838 366 724 366 578 c 2
 366 493 l 9
 341 493 l 17
 341 577 l 2
 341 710 243 813 110 813 c 3
 96 813 77 812 49 805 c 9
 49 831 l 1
 69 836 94 838 110 838 c 3
305 15 m 3
 319 15 338 16 366 23 c 9
 366 -3 l 1
 346 -8 321 -10 305 -10 c 3
 156 -10 49 105 49 250 c 0
 49 395 156 510 305 510 c 3
 321 510 346 508 366 503 c 1
 366 477 l 17
 338 484 319 485 305 485 c 3
 171 485 74 379 74 250 c 0
 74 121 171 15 305 15 c 3
EndSplineSet
EndChar

StartChar: gig
Encoding: 58965 58965 72
Width: 536
Flags: MW
LayerCount: 2
Back
SplineSet
464 294 m 17
 464 399 376 485 271 485 c 9
 271 510 l 17
 392 510 489 413 489 294 c 9
 464 294 l 17
80 -122 m 0
 80 -227 166 -313 271 -313 c 0
 376 -313 462 -227 462 -122 c 0
 462 -17 376 69 271 69 c 0
 166 69 80 -17 80 -122 c 0
55 -122 m 0
 55 -1 152 89 271 89 c 0
 390 89 487 -1 487 -122 c 0
 487 -241 390 -338 271 -338 c 0
 152 -338 55 -241 55 -122 c 0
EndSplineSet
Fore
SplineSet
271 73 m 0
 152 85 55 170 55 292 c 0
 55 413 151 510 270 510 c 0
 361 510 428 456 448 427 c 1
 448 390 l 1
 425 428 359 485 270 485 c 0
 165 485 80 397 80 292 c 0
 80 187 165.478224814 108.731027985 271 98 c 0
 389 86 487 -1 487 -120 c 0
 487 -241 390 -338 271 -338 c 0
 152 -338 55 -241 55 -120 c 0
 55 -73 71 -27 100 9 c 1
 132 9 l 1
 101 -25 80 -71 80 -120 c 0
 80 -225 166 -313 271 -313 c 0
 376 -313 462 -225 462 -120 c 0
 462 -15 377.515862063 62.2589046659 271 73 c 0
EndSplineSet
EndChar

StartChar: loll
Encoding: 58983 58983 73
Width: 575
Flags: MW
LayerCount: 2
Back
SplineSet
524 500 m 3
 524 354 477 241 338 241 c 3
 322 241 297 243 277 248 c 1
 277 274 l 17
 305 267 324 266 338 266 c 3
 461 266 499 371 499 500 c 16
 524 500 l 3
302 248 m 3
 302 102 255 -11 116 -11 c 3
 100 -11 75 -9 55 -4 c 1
 55 22 l 17
 83 15 102 14 116 14 c 3
 239 14 277 119 277 248 c 16
 302 248 l 3
EndSplineSet
Fore
SplineSet
55 23 m 17
 79 17 93 15 116 15 c 3
 210 15 282 87 282 201 c 3
 282 224 280 238 274 262 c 1
 298 256 312 254 335 254 c 3
 429 254 501 325 501 439 c 3
 501 462 499 476 493 500 c 9
 518 500 l 25
 522 488 526 452 526 439 c 3
 526 309 445 229 335 229 c 3
 327 229 314 230 303 233 c 1
 306 222 307 209 307 201 c 3
 307 71 226 -10 116 -10 c 3
 98 -10 81 -9 55 -3 c 9
 55 23 l 17
EndSplineSet
EndChar

StartChar: age
Encoding: 58995 58995 75
Width: 650
Flags: MW
LayerCount: 2
Fore
SplineSet
325 25 m 2
 570 25 l 1
 570 0 l 1
 325 0 l 2
 176 0 70 105 70 250 c 2
 70 500 l 1
 95 500 l 1
 95 250 l 2
 95 121 191 25 325 25 c 2
159 450.73828125 m 1
 202.501953125 487.8515625 259.610351562 510 325 510 c 0
 474 510 580 395 580 250 c 0
 580 188.881835938 561.166992188 133.092773438 528.219726562 89 c 1
 494.774414062 89 l 1
 532.770507812 131.174804688 555 187.924804688 555 250 c 0
 555 379 459 485 325 485 c 0
 257.587890625 485 199.79296875 458.172851562 159 415.086914062 c 1
 159 450.73828125 l 1
EndSplineSet
EndChar

StartChar: qsbracketleft
Encoding: 58990 58990 77
Width: 385
Flags: HMW
LayerCount: 2
Fore
SplineSet
63 838 m 25
 63 -303 l 25
 355 -303 l 1
 355 -328 l 1
 38 -328 l 25
 38 838 l 25
 63 838 l 25
EndSplineSet
EndChar

StartChar: exclam
Encoding: 33 33 79
Width: 240
Flags: HMW
LayerCount: 2
Fore
SplineSet
90 20 m 0
 90 37 103 50 120 50 c 0
 137 50 150 37 150 20 c 0
 150 3 137 -10 120 -10 c 0
 103 -10 90 3 90 20 c 0
107 828 m 1
 132 828 l 1
 132 204 l 1
 107 204 l 1
 107 828 l 1
EndSplineSet
EndChar

StartChar: out
Encoding: 59003 59003 81
Width: 640
Flags: MW
LayerCount: 2
Fore
SplineSet
560 475 m 1
 315 475 l 2
 206 475 95 404 95 237 c 2
 95 0 l 1
 70 0 l 1
 70 238 l 2
 70 419 191 500 315 500 c 2
 560 500 l 1
 560 475 l 1
518.219726562 411 m 1
 551.166992188 366.907226562 570 311.118164062 570 250 c 0
 570 105 464 -10 315 -10 c 0
 254.506835938 -10 201.1015625 8.955078125 159 41.1787109375 c 1
 159 74.9951171875 l 1
 199 37.7490234375 252.922851562 15 315 15 c 0
 449 15 545 121 545 250 c 0
 545 312.075195312 522.770507812 368.825195312 484.774414062 411 c 1
 518.219726562 411 l 1
EndSplineSet
EndChar

StartChar: age.alt
Encoding: 1114113 -1 82
Width: 442
Flags: MW
LayerCount: 2
Fore
SplineSet
326 -10 m 0
 177 -10 70 104 70 250 c 2
 70 373 l 2
 70 449 131 510 207 510 c 0
 283 510 344 449 344 373 c 0
 344 297 283 236 207 236 c 0
 190 236 175 239 160 244 c 1
 160 274 l 1
 174 267 190 263 207 263 c 0
 268 263 318 313 318 374 c 0
 318 435 268 485 207 485 c 0
 146 485 95 434 95 373 c 2
 95 251 l 2
 95 118 193 15 326 15 c 0
 340 15 359 16 387 23 c 1
 387 -3 l 1
 367 -8 342 -10 326 -10 c 0
EndSplineSet
EndChar

StartChar: oil.alt
Encoding: 1114115 -1 84
Width: 393
Flags: MW
LayerCount: 2
Back
SplineSet
118 485 m 4
 57 485 7 435 7 374 c 4
 7 313 57 263 118 263 c 7
 165 263 218 294 230 364 c 5
 230 296 l 5
 211 262 166 236 118 236 c 7
 42 236 -19 297 -19 373 c 4
 -19 449 42 510 118 510 c 4
 218 510 308 430 308 320 c 6
 308 0 l 13
 283 0 l 21
 283 319 l 6
 283 417 206 485 118 485 c 4
-19 373 m 0
 -19 449 42 510 118 510 c 0
 194 510 255 449 255 373 c 0
 255 297 194 236 118 236 c 0
 42 236 -19 297 -19 373 c 0
7 374 m 0
 7 435 57 485 118 485 c 0
 179 485 229 435 229 374 c 0
 229 313 179 263 118 263 c 0
 57 263 7 313 7 374 c 0
-72 320 m 0
 -72 425 13 510 118 510 c 0
 223 510 308 425 308 320 c 0
 308 215 223 130 118 130 c 0
 13 130 -72 215 -72 320 c 0
-48 319 m 0
 -48 411 26 485 118 485 c 0
 210 485 284 411 284 319 c 0
 284 227 210 153 118 153 c 0
 26 153 -48 227 -48 319 c 0
52 510 m 3
 36 510 11 508 -9 503 c 1
 -9 477 l 17
 19 484 38 485 52 485 c 3
 185 485 283 382 283 249 c 2
 283 0 l 9
 308 0 l 17
 308 250 l 2
 308 396 201 510 52 510 c 3
EndSplineSet
Fore
SplineSet
323 0 m 25
 323 373 l 2
 323 449 262 510 186 510 c 0
 110 510 49 449 49 373 c 0
 49 297 110 236 186 236 c 0
 203 236 218 239 233 244 c 1
 233 274 l 1
 219 267 203 263 186 263 c 0
 125 263 75 313 75 374 c 0
 75 435 125 485 186 485 c 0
 247 485 298 434 298 373 c 2
 298 0 l 25
 323 0 l 25
EndSplineSet
EndChar

StartChar: hyphen
Encoding: 45 45 90
Width: 465
Flags: MW
LayerCount: 2
Fore
SplineSet
70 268 m 1
 395 268 l 1
 395 243 l 1
 70 243 l 1
 70 268 l 1
EndSplineSet
EndChar

StartChar: emdash
Encoding: 8212 8212 91
Width: 1000
Flags: MW
LayerCount: 2
Fore
SplineSet
0 268 m 1
 1000 268 l 1
 1000 243 l 1
 0 243 l 1
 0 268 l 1
EndSplineSet
EndChar

StartChar: periodcentered
Encoding: 183 183 92
Width: 240
Flags: HMW
LayerCount: 2
Back
SplineSet
70 268 m 5
 395 268 l 5
 395 243 l 5
 70 243 l 5
 70 268 l 5
EndSplineSet
Fore
Refer: 29 46 N 1 0 0 1 0 235 2
EndChar

StartChar: eight
Encoding: 56 56 96
Width: 557
Flags: HMW
LayerCount: 2
Fore
SplineSet
462 620 m 0
 462 725 376 813 271 813 c 0
 166 813 80 725 80 620 c 0
 80 515 166 427 271 427 c 0
 376 427 462 515 462 620 c 0
487 620 m 0
 487 499 390 407 271 407 c 0
 152 407 55 499 55 620 c 0
 55 739 152 838 271 838 c 0
 390 838 487 739 487 620 c 0
80 209 m 0
 80 104 166 15 271 15 c 0
 376 15 462 104 462 209 c 0
 462 314 376 402 271 402 c 0
 166 402 80 314 80 209 c 0
55 209 m 0
 55 330 152 422 271 422 c 0
 390 422 487 330 487 209 c 0
 487 90 390 -10 271 -10 c 0
 152 -10 55 90 55 209 c 0
EndSplineSet
EndChar

StartChar: one
Encoding: 49 49 97
Width: 372
Flags: HMW
LayerCount: 2
Fore
SplineSet
106 607 m 3
 90 607 75 609 55 614 c 1
 55 639 l 17
 83 632 92 632 106 632 c 3
 209 632 277 715 277 828 c 1
 302 828 l 17
 302 827 l 2
 302 701 225 607 106 607 c 3
277 828 m 1
 302 828 l 1
 302 0 l 1
 277 0 l 1
 277 828 l 1
EndSplineSet
EndChar

StartChar: zero
Encoding: 48 48 98
Width: 650
Flags: HMW
LayerCount: 2
Fore
SplineSet
325 813 m 0
 191 813 95 707 95 578 c 2
 95 250 l 6
 95 121 191 15 325 15 c 4
 459 15 555 121 555 250 c 6
 555 578 l 2
 555 707 459 813 325 813 c 0
325 838 m 0
 474 838 580 723 580 578 c 2
 580 250 l 6
 580 105 474 -10 325 -10 c 4
 176 -10 70 105 70 250 c 6
 70 578 l 2
 70 723 176 838 325 838 c 0
EndSplineSet
EndChar

StartChar: five
Encoding: 53 53 99
Width: 436
Flags: HMW
LayerCount: 2
Fore
SplineSet
70 828 m 1
 377 828 l 1
 377 803 l 17
 95 803 l 1
 95 493 l 9
 70 493 l 17
 70 828 l 1
131 15 m 3
 265 15 362 121 362 250 c 0
 362 379 265 485 131 485 c 3
 117 485 98 484 70 477 c 9
 70 503 l 1
 90 508 115 510 131 510 c 3
 280 510 387 395 387 250 c 0
 387 105 280 -10 131 -10 c 3
 115 -10 90 -8 70 -3 c 1
 70 23 l 17
 98 16 117 15 131 15 c 3
EndSplineSet
EndChar

StartChar: two
Encoding: 50 50 100
Width: 536
Flags: HMW
LayerCount: 2
Fore
SplineSet
492 0 m 4
 85 0 l 0
 85 98 l 0
 85 247 141.377929688 366.5078125 276 397 c 0
 392.5859375 423.407226562 462 515 462 620 c 0
 462 725 377 813 272 813 c 0
 183 813 117 756 94 718 c 1
 94 755 l 1
 114 784 181 838 272 838 c 0
 391 838 487 741 487 620 c 0
 487 498 413.083007812 401.189453125 276 371 c 0
 160.665039062 345.599609375 110 223 110 98 c 0
 110 25 l 0
 492 25 l 4
 492 0 l 4
EndSplineSet
EndChar

StartChar: four
Encoding: 52 52 101
Width: 562
Flags: HMW
LayerCount: 2
Back
SplineSet
458 0 m 1
 433 0 l 1
 433 402 l 1
 103 402 l 1
 103 828 l 1
 128 828 l 1
 128 427 l 1
 433 427 l 1
 433 828 l 1
 458 828 l 1
 458 0 l 1
EndSplineSet
Fore
SplineSet
467 828 m 5
 492 828 l 5
 492 0 l 5
 467 0 l 5
 467 828 l 5
55 327 m 1
 481 327 l 5
 481 302 l 5
 55 302 l 1
 55 327 l 1
285 828 m 1
 310 828 l 1
 310 562 l 2
 310 417 204 308 55 308 c 0
 55 327 l 3
 189 327 285 433 285 562 c 2
 285 828 l 1
EndSplineSet
EndChar

StartChar: seven
Encoding: 55 55 102
Width: 555
Flags: HMW
LayerCount: 2
Back
SplineSet
244 568 m 22
 244 714 301 823 430 823 c 13
 430 803 l 21
 317 803 269 700 269 567 c 6
 269 0 l 29
 244 0 l 29
 244 568 l 22
55 828 m 1
 430 828 l 1
 430 0 l 1
 405 0 l 1
 405 803 l 1
 55 803 l 1
 55 828 l 1
EndSplineSet
Fore
SplineSet
500 803 m 1
 55 803 l 1
 55 828 l 1
 500 828 l 1
 500 803 l 1
271 0 m 1
 246 0 l 1
 246 568 l 2
 246 713 351 822 500 822 c 9
 500 803 l 17
 366 803 271 697 271 568 c 2
 271 0 l 1
EndSplineSet
EndChar

StartChar: O
Encoding: 79 79 103
Width: 940
Flags: HMW
LayerCount: 2
Fore
SplineSet
76 414 m 0
 76 195 253 17 470 17 c 0
 687 17 864 195 864 414 c 0
 864 633 687 811 470 811 c 0
 253 811 76 633 76 414 c 0
49 414 m 0
 49 648 236 838 470 838 c 0
 704 838 891 648 891 414 c 0
 891 180 704 -10 470 -10 c 0
 236 -10 49 180 49 414 c 0
EndSplineSet
EndChar

StartChar: Q
Encoding: 81 81 104
Width: 961
Flags: HMW
LayerCount: 2
Fore
SplineSet
470 0 m 2
 236 0 49 185 49 414 c 0
 49 648 236 838 470 838 c 0
 704 838 891 648 891 414 c 0
 891 284.680465939 833.886283215 168.799505822 743.290270513 91 c 1
 698.771652281 91 l 1
 798.687891294 163.065887526 864 280.968546992 864 414 c 0
 864 633 687 811 470 811 c 0
 253 811 76 633 76 414 c 0
 76 200 253 27 470 27 c 2
 891 27 l 1
 891 0 l 1
 470 0 l 2
EndSplineSet
EndChar

StartChar: C
Encoding: 67 67 105
Width: 640
Flags: HMW
LayerCount: 2
Fore
SplineSet
49 414 m 0
 49 648 236 838 470 838 c 0
 505 838 538 834 570 826 c 1
 570 798 l 1
 538 806 505 811 470 811 c 0
 253 811 76 633 76 414 c 0
 76 195 253 17 470 17 c 0
 505 17 538 22 570 30 c 1
 570 2 l 1
 538 -6 505 -10 470 -10 c 0
 236 -10 49 180 49 414 c 0
EndSplineSet
EndChar

StartChar: G
Encoding: 71 71 106
Width: 650
Flags: HMW
LayerCount: 2
Back
SplineSet
543 359 m 1
 570 359 l 1
 570 12 l 1
 543 12 l 1
 543 359 l 1
49 414 m 0
 49 648 236 838 470 838 c 0
 505 838 538 834 570 826 c 1
 570 798 l 1
 538 806 505 811 470 811 c 0
 253 811 76 633 76 414 c 0
 76 195 253 17 470 17 c 0
 505 17 538 22 570 30 c 1
 570 2 l 1
 538 -6 505 -10 470 -10 c 0
 236 -10 49 180 49 414 c 0
EndSplineSet
Fore
SplineSet
553 444 m 1
 580 444 l 1
 580 12 l 1
 553 12 l 1
 553 444 l 1
49 414 m 0
 49 648 236 838 470 838 c 0
 505 838 538 834 570 826 c 1
 570 798 l 1
 538 806 505 811 470 811 c 0
 253 811 76 633 76 414 c 0
 76 200 253 27 470 27 c 2
 580 28 l 1
 580 0 l 1
 470 0 l 2
 236 0 49 185 49 414 c 0
EndSplineSet
EndChar

StartChar: D
Encoding: 68 68 107
Width: 648
Flags: HMW
LayerCount: 2
Back
SplineSet
176 27 m 2
 393 27 572 200 572 414 c 0
 572 628 393 801 176 801 c 2
 97 800.173076923 l 1
 97 27 l 1
 176 27 l 2
70 -1 m 1
 70 828 l 1
 176 828 l 2
 410 828 599 643 599 414 c 0
 599 185 410 2 176 0 c 2
 70 -1 l 1
EndSplineSet
Fore
SplineSet
70 -1 m 1
 70 828 l 1
 176 828 l 2
 410 828 599 643 599 414 c 0
 599 181.853515625 410.9609375 2.16015625 166 -0.1416015625 c 1
 166 27 l 1
 394.174804688 27 572 196.95703125 572 414 c 0
 572 628 393 801 176 801 c 2
 97 800.173076923 l 1
 97 -0.745283018868 l 1
 70 -1 l 1
EndSplineSet
EndChar

StartChar: X
Encoding: 88 88 108
Width: 915
Flags: HMW
LayerCount: 2
Back
SplineSet
449 414 m 0
 449 648 631 838 865 838 c 0
 900 838 933 834 965 826 c 1
 965 798 l 1
 933 806 900 811 865 811 c 0
 648 811 471 633 471 414 c 0
 471 195 648 17 865 17 c 0
 900 17 933 22 965 30 c 1
 965 2 l 1
 933 -6 900 -10 865 -10 c 0
 631 -10 449 180 449 414 c 0
EndSplineSet
Fore
SplineSet
100 811 m 0
 287 811 444 633 444 414 c 0
 444 195 287 17 100 17 c 0
 94 17 84 17 70 18 c 1
 70 -9 l 1
 81 -10 92 -10 100 -10 c 0
 304 -10 466 180 466 414 c 0
 466 648 304 838 100 838 c 0
 92 838 81 838 70 837 c 1
 70 810 l 1
 84 811 94 811 100 811 c 0
815 17 m 0
 628 17 471 195 471 414 c 0
 471 633 628 811 815 811 c 0
 821 811 831 811 845 810 c 1
 845 837 l 1
 834 838 823 838 815 838 c 0
 611 838 449 648 449 414 c 0
 449 180 611 -10 815 -10 c 0
 823 -10 834 -10 845 -9 c 1
 845 18 l 1
 831 17 821 17 815 17 c 0
EndSplineSet
EndChar

StartChar: N
Encoding: 78 78 109
Width: 692
Flags: HMW
LayerCount: 2
Fore
SplineSet
622 561 m 2
 622 0 l 1
 595 0 l 1
 595 562 l 2
 595 699 483 811 346 811 c 3
 209 811 97 699 97 562 c 2
 97 0 l 1
 70 0 l 1
 70 562 l 2
 70 714 194 838 346 838 c 3
 498 838 622 713 622 561 c 2
EndSplineSet
EndChar

StartChar: M
Encoding: 77 77 110
Width: 977
Flags: HMW
LayerCount: 2
Back
SplineSet
455 581 m 6
 455 750 554 838 688 838 c 4
 796 838 915 746 915 587 c 6
 915 0 l 13
 734 0 l 21
 734 581 l 6
 734 634 692 657 658 657 c 7
 623 657 583 634 583 581 c 6
 583 0 l 13
 455 0 l 21
 455 581 l 6
70 587 m 6
 70 746 188 838 297 838 c 4
 435 838 530 750 530 581 c 6
 530 0 l 13
 402 0 l 21
 402 581 l 6
 402 634 361 657 327 657 c 7
 292 657 251 634 251 581 c 6
 251 0 l 13
 70 0 l 21
 70 587 l 6
EndSplineSet
Fore
SplineSet
480 622 m 2
 480 744 559 838 691 838 c 3
 823 838 907 743 907 621 c 2
 907 0 l 1
 880 0 l 1
 880 622 l 2
 880 729 808 811 691 811 c 3
 574 811 502 729 502 622 c 2
 502 0 l 1
 480 0 l 1
 480 622 l 2
70 622 m 2
 70 744 154 838 286 838 c 3
 418 838 497 743 497 621 c 2
 497 0 l 1
 475 0 l 1
 475 622 l 2
 475 729 403 811 286 811 c 3
 169 811 97 729 97 622 c 2
 97 0 l 1
 70 0 l 1
 70 622 l 2
EndSplineSet
EndChar

StartChar: I
Encoding: 73 73 112
Width: 167
Flags: HMW
LayerCount: 2
Fore
SplineSet
70 828 m 1
 97 828 l 1
 97 0 l 1
 70 0 l 1
 70 828 l 1
EndSplineSet
EndChar

StartChar: W
Encoding: 87 87 113
Width: 977
Flags: HMW
LayerCount: 2
Fore
SplineSet
497 216 m 2
 497 94 418 0 286 0 c 2
 70 0 l 25
 70 828 l 1
 97 828 l 1
 97 27 l 25
 286 27 l 2
 403 27 475 109 475 216 c 2
 475 828 l 1
 497 828 l 1
 497 216 l 2
907 206 m 2
 907 84 823 -10 691 -10 c 3
 559 -10 480 85 480 207 c 2
 480 828 l 1
 502 828 l 1
 502 206 l 2
 502 99 574 17 691 17 c 3
 808 17 880 99 880 206 c 2
 880 828 l 1
 907 828 l 1
 907 206 l 2
EndSplineSet
EndChar

StartChar: V
Encoding: 86 86 114
Width: 652
Flags: HMW
LayerCount: 2
Fore
SplineSet
70 828 m 1
 97 828 l 1
 97 27 l 25
 306 27 l 2
 443 27 555 139 555 276 c 2
 555 828 l 1
 582 828 l 1
 582 276 l 2
 582 124 458 0 306 0 c 2
 70 0 l 25
 70 828 l 1
EndSplineSet
EndChar

StartChar: A
Encoding: 65 65 115
Width: 652
Flags: HMW
LayerCount: 2
Fore
SplineSet
161 381 m 1
 562 381 l 1
 562 354 l 1
 161 354 l 1
 161 381 l 1
582 0 m 1
 555 0 l 1
 555 801 l 25
 346 801 l 2
 209 801 97 689 97 552 c 2
 97 0 l 1
 70 0 l 1
 70 552 l 2
 70 704 194 828 346 828 c 2
 582 828 l 25
 582 0 l 1
EndSplineSet
EndChar

StartChar: Y
Encoding: 89 89 116
Width: 692
Flags: HMW
LayerCount: 2
Fore
SplineSet
332 389 m 1
 359 389 l 1
 359 0 l 1
 332 0 l 1
 332 389 l 1
70 652 m 2
 70 828 l 1
 97 828 l 1
 97 651 l 2
 97 514 209 402 346 402 c 3
 483 402 595 514 595 651 c 2
 595 828 l 1
 622 828 l 1
 622 651 l 2
 622 499 498 375 346 375 c 3
 194 375 70 500 70 652 c 2
EndSplineSet
EndChar

StartChar: K
Encoding: 75 75 117
Width: 616
Flags: HMW
LayerCount: 2
Fore
SplineSet
122 414 m 10
 83 414 l 1
 83 436 l 25
 122 436 l 2
 356 436 546 274 546 70 c 2
 546 0 l 1
 519 0 l 1
 519 70 l 2
 519 257 341 414 122 414 c 10
70 828 m 1
 97 828 l 1
 97 0 l 1
 70 0 l 1
 70 828 l 1
120 441 m 18
 339 441 517 598 517 785 c 2
 517 828 l 1
 544 828 l 1
 544 785 l 2
 544 581 354 419 120 419 c 2
 81 419 l 25
 81 441 l 1
 120 441 l 18
EndSplineSet
EndChar

StartChar: P
Encoding: 80 80 118
Width: 619
Flags: HMW
LayerCount: 2
Fore
SplineSet
315 811 m 0
 207 811 97 731 97 565 c 2
 97 0 l 1
 70 0 l 1
 70 566 l 2
 70 747 191 838 315 838 c 0
 464 838 570 723 570 578 c 0
 570 433 464 318 315 318 c 0
 254.506835938 318 201.1015625 336.955078125 159 369.178710938 c 1
 159 403.995117188 l 1
 199 367.749023438 253.922851562 345 315 345 c 0
 448 345 543 450 543 578 c 0
 543 706 448 811 315 811 c 0
EndSplineSet
EndChar

StartChar: R
Encoding: 82 82 119
Width: 600
Flags: HMW
LayerCount: 2
Back
SplineSet
97 603 m 0
 97 718 190 811 305 811 c 0
 420 811 513 718 513 603 c 0
 513 488 420 395 305 395 c 0
 190 395 97 488 97 603 c 0
70 603 m 0
 70 733 175 838 305 838 c 0
 435 838 540 733 540 603 c 0
 540 473 435 368 305 368 c 0
 175 368 70 473 70 603 c 0
EndSplineSet
Fore
SplineSet
159 390 m 1
 295 390 l 2
 425 390 530 290 530 160 c 2
 530 0 l 25
 503 0 l 25
 503 160 l 2
 503 275 410 368 295 368 c 2
 159 368 l 1
 159 390 l 1
159 374 m 1
 159 395 l 1
 305 395 l 2
 420 395 513 487.982421875 513 603 c 3
 513 718.040039062 420.004882812 811 305 811 c 3
 189.995117188 811 97 718 97 603 c 2
 97 0 l 1
 70 0 l 1
 70 604 l 2
 70 734 175 838 305 838 c 3
 435.00390625 838 540 733 540 603 c 3
 540 473 435 374 305 374 c 2
 159 374 l 1
EndSplineSet
EndChar

StartChar: J
Encoding: 74 74 120
Width: 401
Flags: HMW
LayerCount: 2
Fore
SplineSet
304 828 m 1
 331 828 l 1
 331 250 l 2
 331 104 224 -10 75 -10 c 0
 59 -10 34 -8 14 -3 c 1
 14 25 l 1
 42 18 61 17 75 17 c 0
 207 17 304 119 304 251 c 2
 304 828 l 1
EndSplineSet
EndChar

StartChar: S
Encoding: 83 83 121
Width: 745
Flags: HMW
LayerCount: 2
Back
SplineSet
359 414 m 0
 359 648 456 838 660 838 c 0
 695 838 728 834 760 826 c 1
 760 798 l 1
 728 806 695 811 660 811 c 0
 473 811 386 633 386 414 c 0
 386 180 289 -10 85 -10 c 0
 50 -10 17 -6 -15 2 c 1
 -15 30 l 1
 17 22 50 17 85 17 c 0
 272 17 359 195 359 414 c 0
EndSplineSet
Fore
SplineSet
359 414 m 0
 359 648 456 838 660 838 c 0
 670.16015625 838 680.15234375 837.663085938 690 836.98828125 c 1
 690 809.78515625 l 1
 680.15234375 810.579101562 670.16015625 811 660 811 c 0
 473 811 386 633 386 414 c 0
 386 180 289 -10 85 -10 c 0
 74.83984375 -10 64.84765625 -9.6630859375 55 -8.98828125 c 1
 55 18.21484375 l 1
 64.84765625 17.4208984375 74.83984375 17 85 17 c 0
 272 17 359 195 359 414 c 0
EndSplineSet
EndChar

StartChar: B
Encoding: 66 66 122
Width: 551
Flags: HMW
LayerCount: 2
Fore
SplineSet
286 427 m 2
 405 427 502 333 502 212 c 0
 502 93 405 0 286 0 c 0
 161 0 l 1
 161 27.1171875 l 1
 286 27 l 0
 391 27 475 107 475 212 c 0
 475 317 391 406 286 406 c 2
 161 406 l 1
 161 427 l 1
 286 427 l 2
161 433 m 1
 286 433 l 2
 391 433 475 518 475 623 c 0
 475 728 391 811 286 811 c 0
 181 811 97 725 97 620 c 2
 97 0 l 1
 70 0 l 1
 70 620 l 2
 70 739 167 838 286 838 c 0
 405 838 502 742 502 623 c 0
 502 502 405 412 286 412 c 2
 161 412 l 1
 161 433 l 1
EndSplineSet
EndChar

StartChar: E
Encoding: 69 69 123
Width: 640
Flags: HMW
LayerCount: 2
Back
SplineSet
70 828 m 1
 473 828 l 25
 473 801 l 25
 97 801 l 25
 97 454 l 25
 468 454 l 25
 468 427 l 25
 97 427 l 25
 97 27 l 25
 474 27 l 25
 474 0 l 25
 70 0 l 1
 70 828 l 1
EndSplineSet
Fore
SplineSet
63 440 m 1
 515 440 l 1
 515 413 l 1
 63 413 l 1
 63 440 l 1
49 414 m 0
 49 648 236 838 470 838 c 0
 505 838 538 834 570 826 c 1
 570 798 l 1
 538 806 505 811 470 811 c 0
 253 811 76 633 76 414 c 0
 76 195 253 17 470 17 c 0
 505 17 538 22 570 30 c 1
 570 2 l 1
 538 -6 505 -10 470 -10 c 0
 236 -10 49 180 49 414 c 0
EndSplineSet
EndChar

StartChar: F
Encoding: 70 70 124
Width: 543
Flags: HMW
LayerCount: 2
Back
SplineSet
70 0 m 1
 70 828 l 1
 473 828 l 25
 473 801 l 25
 97 801 l 25
 97 454 l 25
 468 454 l 25
 468 427 l 25
 97 427 l 25
 97 0 l 25
 70 0 l 1
EndSplineSet
Fore
SplineSet
70 568 m 2
 70 714 177 828 326 828 c 2
 473 828 l 25
 473 801 l 25
 326 801 l 2
 194 801 97 699 97 567 c 2
 97 454 l 25
 468 454 l 25
 468 427 l 25
 97 427 l 25
 97 0 l 25
 70 0 l 1
 70 568 l 2
EndSplineSet
EndChar

StartChar: H
Encoding: 72 72 125
Width: 630
Flags: HMW
LayerCount: 2
Fore
SplineSet
70 828 m 1
 97 828 l 1
 97 454 l 1
 533 454 l 1
 533 828 l 1
 560 828 l 1
 560 0 l 1
 533 0 l 1
 533 427 l 1
 97 427 l 1
 97 0 l 1
 70 0 l 1
 70 828 l 1
EndSplineSet
EndChar

StartChar: L
Encoding: 76 76 126
Width: 529
Flags: HMW
LayerCount: 2
Back
SplineSet
97 828 m 25
 97 27 l 1
 474 27 l 25
 474 0 l 25
 70 0 l 1
 70 828 l 1
 97 828 l 25
EndSplineSet
Fore
SplineSet
97 828 m 25
 97 261 l 2
 97 129 194 27 326 27 c 2
 474 27 l 25
 474 0 l 25
 326 0 l 2
 177 0 70 114 70 260 c 2
 70 828 l 1
 97 828 l 25
EndSplineSet
EndChar

StartChar: T
Encoding: 84 84 127
Width: 643
Flags: HMW
LayerCount: 2
Fore
SplineSet
308 801 m 1
 55 801 l 1
 55 828 l 1
 588 828 l 1
 588 801 l 1
 335 801 l 1
 335 0 l 1
 308 0 l 1
 308 801 l 1
EndSplineSet
EndChar

StartChar: Z
Encoding: 90 90 128
Width: 754
Flags: HMW
LayerCount: 2
Back
SplineSet
-22 5 m 4
 -49 5 l 4
 -49 239 138 429 372 429 c 4
 589 429 766 607 766 826 c 4
 793 826 l 4
 793 592 606 402 372 402 c 4
 155 402 -22 224 -22 5 c 4
EndSplineSet
Fore
SplineSet
71 5 m 1
 84 27 l 1
 684 27 l 1
 684 0 l 1
 71 0 l 1
 71 5 l 1
70 828 m 1
 673 828 l 1
 673 826 l 1
 658 801 l 1
 70 801 l 1
 70 828 l 1
98 5 m 0
 71 5 l 0
 71 239 158.30078125 417.13671875 372 429 c 0
 568.950195312 439.93359375 646 607 646 826 c 0
 673 826 l 0
 673 592 585.694335938 413.86328125 372 402 c 0
 175.044921875 391.06640625 98 224 98 5 c 0
EndSplineSet
EndChar

StartChar: sterling
Encoding: 163 163 129
Width: 641
Flags: MW
LayerCount: 2
Fore
SplineSet
255 423 m 1
 531 423 l 1
 531 398 l 1
 255 398 l 1
 255 423 l 1
269 220 m 2
 269 95 184 6 55 6 c 1
 55 25 l 1
 169 25 244 111 244 220 c 2
 244 568 l 2
 244 714 351 828 500 828 c 0
 516 828 541 826 561 821 c 1
 561 795 l 1
 533 802 514 803 500 803 c 0
 367 803 269 700 269 567 c 2
 269 220 l 2
55 25 m 1
 571 25 l 1
 571 0 l 1
 55 0 l 1
 55 25 l 1
EndSplineSet
EndChar

StartChar: Euro
Encoding: 8364 8364 130
Width: 640
Flags: MW
LayerCount: 2
Fore
SplineSet
63 365 m 1
 515 365 l 1
 515 338 l 1
 63 338 l 1
 63 365 l 1
63 505 m 1
 515 505 l 1
 515 478 l 1
 63 478 l 1
 63 505 l 1
49 414 m 0
 49 648 236 838 470 838 c 0
 505 838 538 834 570 826 c 1
 570 798 l 1
 538 806 505 811 470 811 c 0
 253 811 76 633 76 414 c 0
 76 195 253 17 470 17 c 0
 505 17 538 22 570 30 c 1
 570 2 l 1
 538 -6 505 -10 470 -10 c 0
 236 -10 49 180 49 414 c 0
EndSplineSet
EndChar

StartChar: ampersand
Encoding: 38 38 131
Width: 809
Flags: MW
LayerCount: 2
Fore
SplineSet
678 -10 m 0
 529 -10 422 104 422 250 c 2
 422 605 l 1
 447 605 l 1
 447 426 l 1
 734 426 l 1
 734 401 l 1
 447 401 l 1
 447 251 l 2
 447 118 545 15 678 15 c 0
 692 15 711 16 739 23 c 1
 739 -3 l 1
 719 -8 694 -10 678 -10 c 0
358 818 m 1
 358 792 l 1
 334 804 312 813 270 813 c 0
 165 813 80 724 80 619 c 0
 80 514 156 426 301 426 c 2
 431 426 l 1
 431 408 l 1
 271 408 l 2
 152 408 55 498 55 619 c 0
 55 738 151 838 270 838 c 0
 307 838 337 829 358 818 c 1
360 10 m 1
 339 -1 309 -10 272 -10 c 3
 153 -10 55 89 55 208 c 0
 55 329 152 419 271 419 c 2
 431 419 l 1
 431 401 l 1
 301 401 l 2
 156 401 80 313 80 208 c 0
 80 103 167 15 272 15 c 3
 314 15 336 24 360 36 c 1
 360 10 l 1
EndSplineSet
EndChar

StartChar: germandbls
Encoding: 223 223 132
Width: 551
Flags: MW
LayerCount: 2
Fore
SplineSet
286 422 m 2
 405 422 502 329 502 208 c 0
 502 89 405 -10 286 -10 c 0
 239.4765625 -10 196.31640625 5.2841796875 161 31.0126953125 c 1
 161 64.1171875 l 1
 194.227539062 34.2490234375 237.911132812 15 286 15 c 0
 391 15 477 103 477 208 c 0
 477 313 391 402 286 402 c 2
 161 402 l 1
 161 422 l 1
 286 422 l 2
161 427 m 1
 286 427 l 2
 391 427 477 516 477 621 c 0
 477 726 391 813 286 813 c 0
 181 813 95 725 95 620 c 2
 95 0 l 1
 70 0 l 1
 70 620 l 2
 70 739 167 838 286 838 c 0
 405 838 502 740 502 621 c 0
 502 500 405 407 286 407 c 2
 161 407 l 1
 161 427 l 1
EndSplineSet
EndChar

StartChar: section
Encoding: 167 167 133
Width: 826
Flags: MW
LayerCount: 2
Fore
SplineSet
277 -77 m 2
 277 250 l 2
 277 396 334 510 463 510 c 3
 479 510 504 508 524 503 c 1
 524 477 l 17
 496 484 477 485 463 485 c 3
 350 485 302 382 302 249 c 2
 302 -78 l 2
 302 -224 255 -338 116 -338 c 3
 100 -338 75 -336 55 -331 c 1
 55 -305 l 17
 83 -312 102 -313 116 -313 c 3
 239 -313 277 -188 277 -77 c 2
524 251 m 2
 524 578 l 2
 524 724 581 838 710 838 c 3
 726 838 751 836 771 831 c 1
 771 805 l 17
 743 812 724 813 710 813 c 3
 597 813 549 710 549 577 c 2
 549 250 l 2
 549 104 502 -10 363 -10 c 3
 347 -10 322 -8 302 -3 c 1
 302 23 l 17
 330 16 349 15 363 15 c 3
 486 15 524 140 524 251 c 2
EndSplineSet
EndChar

StartChar: at
Encoding: 64 64 134
Width: 1234
Flags: MW
LayerCount: 2
Back
SplineSet
751 250 m 0
 751 374 852 475 976 475 c 0
 1100 475 1201 374 1201 250 c 0
 1201 126 1100 25 976 25 c 4
 852 25 751 126 751 250 c 0
74 250 m 0
 74 -61 326 -313 637 -313 c 0
 948 -313 1200 -61 1200 250 c 0
 1200 561 948 813 637 813 c 0
 326 813 74 561 74 250 c 0
49 250 m 0
 49 575 312 838 637 838 c 0
 962 838 1225 575 1225 250 c 0
 1225 -75 962 -338 637 -338 c 0
 312 -338 49 -75 49 250 c 0
EndSplineSet
Fore
SplineSet
794 -317 m 1
 734 -331 704 -338 637 -338 c 3
 312 -338 49 -75 49 250 c 0
 49 575 312 838 637 838 c 0
 954 838 1185 585 1185 300 c 3
 1185 133 1077 -1.98386229319e-14 915 0 c 2
 857 0 l 9
 857 237 l 2
 857 404 746 485 637 485 c 0
 503 485 407 379 407 250 c 0
 407 121 503 15 637 15 c 0
 699 15 753 38 793 75 c 1
 793 41 l 1
 751 9 697 -10 637 -10 c 0
 488 -10 382 105 382 250 c 0
 382 395 488 510 637 510 c 0
 761 510 882 419 882 238 c 2
 882 25 l 17
 915 25 l 2
 1059 25 1160 146 1160 300 c 3
 1160 571 940 813 637 813 c 0
 326 813 74 561 74 250 c 0
 74 -61 326 -313 637 -313 c 3
 712 -313 750 -302 794 -290 c 1
 794 -317 l 1
EndSplineSet
EndChar

StartChar: quotesingle
Encoding: 39 39 135
Width: 240
Flags: MW
LayerCount: 2
Fore
SplineSet
107.5 838 m 1
 132.5 838 l 1
 132.5 666 l 5
 107.5 666 l 5
 107.5 838 l 1
EndSplineSet
EndChar

StartChar: plus
Encoding: 43 43 137
Width: 585
Flags: MW
LayerCount: 2
Fore
SplineSet
280 639 m 1
 305 639 l 1
 305 399 l 1
 530 399 l 1
 530 374 l 1
 305 374 l 1
 305 121 l 1
 280 121 l 1
 280 374 l 1
 55 374 l 1
 55 399 l 1
 280 399 l 1
 280 639 l 1
EndSplineSet
EndChar

StartChar: minus
Encoding: 8722 8722 138
Width: 585
Flags: MW
LayerCount: 2
Fore
SplineSet
55 399 m 5
 530 399 l 5
 530 374 l 5
 55 374 l 5
 55 399 l 5
EndSplineSet
EndChar

StartChar: equal
Encoding: 61 61 139
Width: 585
Flags: HMW
LayerCount: 2
Back
SplineSet
280 639 m 1
 305 639 l 1
 305 399 l 1
 530 399 l 1
 530 374 l 1
 305 374 l 1
 305 121 l 1
 280 121 l 1
 280 374 l 1
 55 374 l 1
 55 399 l 1
 280 399 l 1
 280 639 l 1
EndSplineSet
Fore
Refer: 138 8722 S 1 0 0 1 0 -109 2
Refer: 138 8722 N 1 0 0 1 0 106 2
EndChar

StartChar: logicalnot
Encoding: 172 172 140
Width: 600
Flags: MW
LayerCount: 2
Fore
SplineSet
530 121 m 1
 505 121 l 1
 505 374 l 1
 55 374 l 1
 55 399 l 1
 530 399 l 1
 530 121 l 1
EndSplineSet
EndChar

StartChar: divide
Encoding: 247 247 142
Width: 585
Flags: HMW
LayerCount: 2
Back
SplineSet
280 639 m 1
 305 639 l 1
 305 399 l 1
 530 399 l 1
 530 374 l 1
 305 374 l 1
 305 121 l 1
 280 121 l 1
 280 374 l 1
 55 374 l 1
 55 399 l 1
 280 399 l 1
 280 639 l 1
EndSplineSet
Fore
Refer: 29 46 N 1 0 0 1 173 551 2
Refer: 29 46 N 1 0 0 1 173 181 2
Refer: 138 8722 N 1 0 0 1 0 0 2
EndChar

StartChar: dagger
Encoding: 8224 8224 143
Width: 471
Flags: MW
LayerCount: 2
Fore
SplineSet
55 558 m 1
 416 558 l 1
 416 533 l 1
 55 533 l 1
 55 558 l 1
223 828 m 1
 248 828 l 1
 248 0 l 1
 223 0 l 1
 223 828 l 1
EndSplineSet
EndChar

StartChar: daggerdbl
Encoding: 8225 8225 144
Width: 471
Flags: MW
LayerCount: 2
Fore
SplineSet
55 295 m 1
 416 295 l 1
 416 270 l 1
 55 270 l 1
 55 295 l 1
55 558 m 1
 416 558 l 1
 416 533 l 1
 55 533 l 1
 55 558 l 1
223 828 m 1
 248 828 l 1
 248 0 l 1
 223 0 l 1
 223 828 l 1
EndSplineSet
EndChar

StartChar: endash
Encoding: 8211 8211 145
Width: 500
Flags: MW
LayerCount: 2
Fore
SplineSet
0 268 m 1
 500 268 l 5
 500 243 l 5
 0 243 l 1
 0 268 l 1
EndSplineSet
EndChar

StartChar: bar
Encoding: 124 124 147
Width: 500
Flags: MW
LayerCount: 2
Fore
SplineSet
238 828 m 1
 263 828 l 1
 263 -170 l 1
 238 -170 l 1
 238 828 l 1
EndSplineSet
EndChar

StartChar: brokenbar
Encoding: 166 166 148
Width: 500
Flags: MW
LayerCount: 2
Fore
SplineSet
238 828 m 1
 263 828 l 1
 263 439 l 1
 238 439 l 1
 238 828 l 1
263 236 m 1
 263 -170 l 1
 238 -170 l 1
 238 236 l 1
 263 236 l 1
EndSplineSet
EndChar

StartChar: numbersign
Encoding: 35 35 149
Width: 755
Flags: MW
LayerCount: 2
Fore
SplineSet
520 828 m 5
 545 828 l 5
 545 0 l 5
 520 0 l 5
 520 828 l 5
70 586 m 1
 685 586 l 5
 685 561 l 5
 70 561 l 1
 70 586 l 1
70 270 m 1
 685 270 l 5
 685 245 l 5
 70 245 l 1
 70 270 l 1
220 828 m 1
 245 828 l 1
 245 0 l 1
 220 0 l 1
 220 828 l 1
EndSplineSet
EndChar

StartChar: parenleft
Encoding: 40 40 150
Width: 391
Flags: MW
LayerCount: 2
Fore
SplineSet
70 80 m 2
 70 578 l 2
 70 724 177 838 326 838 c 2
 336 838 l 25
 336 813 l 25
 326 813 l 2
 194 813 95 709 95 577 c 2
 95 81 l 2
 95 -51 194 -155 326 -155 c 2
 336 -155 l 25
 336 -180 l 25
 326 -180 l 2
 177 -180 70 -66 70 80 c 2
EndSplineSet
EndChar

StartChar: braceleft
Encoding: 123 123 152
Width: 557
Flags: MW
LayerCount: 2
Fore
SplineSet
492 -170 m 2
 343 -170 236 -56 236 90 c 2
 236 116 l 2
 236 229 168 312 65 312 c 2
 55 312 l 9
 55 332 l 1
 65 332 l 2
 184 332 261 243 261 117 c 2
 261 91 l 2
 261 -41 360 -145 492 -145 c 2
 502 -145 l 25
 502 -170 l 25
 492 -170 l 2
492 803 m 2
 360 803 261 699 261 567 c 2
 261 532 l 2
 261 406 184 317 65 317 c 2
 55 317 l 1
 55 337 l 17
 65 337 l 2
 168 337 236 420 236 533 c 2
 236 568 l 2
 236 714 343 828 492 828 c 2
 502 828 l 25
 502 803 l 25
 492 803 l 2
EndSplineSet
EndChar

StartChar: bracketleft
Encoding: 91 91 153
Width: 390
Flags: MW
LayerCount: 2
Fore
SplineSet
94 803 m 1
 94 -145 l 1
 335 -145 l 1
 335 -170 l 1
 70 -170 l 1
 70 828 l 1
 335 828 l 1
 335 803 l 1
 94 803 l 1
EndSplineSet
EndChar

StartChar: dollar
Encoding: 36 36 157
Width: 432
Flags: MW
LayerCount: 2
Fore
SplineSet
228 135 m 1
 228 -10 l 1
 203 -10 l 1
 203 135 l 1
 228 135 l 1
203 838 m 1
 228 838 l 1
 228 693 l 1
 203 693 l 1
 203 838 l 1
206 402 m 2
 123 402 55 470 55 553 c 0
 55 636 123 704 206 704 c 2
 367 704 l 1
 367 679 l 1
 206 679 l 2
 136 679 80 623 80 553 c 0
 80 483 136 427 206 427 c 2
 226 427 l 2
 309 427 377 359 377 276 c 0
 377 193 309 125 226 125 c 2
 55 125 l 1
 55 150 l 1
 226 150 l 2
 296 150 352 206 352 276 c 0
 352 346 296 402 226 402 c 2
 206 402 l 2
EndSplineSet
EndChar

StartChar: asciitilde
Encoding: 126 126 158
Width: 645
Flags: MW
LayerCount: 2
Back
SplineSet
-17 176 m 25
 -17 386 l 18
 -17 505 78.99609375 601 198 601 c 3
 317.00390625 601 400.094726562 501.107421875 413 386 c 0
 415.864257812 360.450195312 430.954101562 346 453 346 c 3
 475.283203125 346 493 364 493 386 c 10
 493 596 l 25
 668 596 l 25
 668 386 l 18
 668 267 572.014648438 171 453 171 c 3
 333.943359375 171 245.608398438 269.729492188 238 386 c 0
 236.333007812 411.48046875 221.440429688 426 198 426 c 3
 176 426 158 408 158 386 c 10
 158 176 l 25
 -17 176 l 25
233 329 m 0
 233 384 278 429 333 429 c 0
 388 429 433 384 433 329 c 0
 433 274 388 229 333 229 c 0
 278 229 233 274 233 329 c 0
208 329 m 0
 208 398 264 454 333 454 c 0
 402 454 458 398 458 329 c 0
 458 260 402 204 333 204 c 0
 264 204 208 260 208 329 c 0
208 399 m 1
 683 399 l 1
 683 374 l 1
 208 374 l 1
 208 399 l 1
EndSplineSet
Fore
SplineSet
55 256 m 25
 55 386 l 18
 55 463 118 526 195 526 c 3
 272 526 330.936704702 464.977195567 335 386 c 0
 338.137562731 325.016023391 391 271 450 271 c 3
 513 271 565 323 565 386 c 10
 565 516 l 25
 590 516 l 25
 590 386 l 18
 590 309 527 246 450 246 c 3
 373 246 314.064631474 307.022757556 310 386 c 0
 306.863266988 446.947843648 258 501 195 501 c 3
 132 501 80 449 80 386 c 10
 80 256 l 25
 55 256 l 25
EndSplineSet
EndChar

StartChar: asciicircum
Encoding: 94 94 159
Width: 637
Flags: MW
LayerCount: 2
Fore
SplineSet
326 828 m 17
 326 683 209 568 106 568 c 3
 91 568 81 569 70 572 c 1
 70 597 l 17
 83 594 90 593 106 593 c 3
 194 593 306 699 306 828 c 9
 326 828 l 17
331 828 m 17
 331 699 433 593 531 593 c 3
 547 593 554 593 567 596 c 9
 567 571 l 1
 556 568 546 568 531 568 c 3
 418 568 311 683 311 828 c 9
 331 828 l 17
EndSplineSet
EndChar

StartChar: less
Encoding: 60 60 160
Width: 394
Flags: MW
LayerCount: 2
Fore
SplineSet
79 379 m 2
 55 379 l 9
 55 399 l 17
 79 399 l 2
 185 399 299 480 299 617 c 2
 299 632 l 9
 324 632 l 17
 324 616 l 2
 324 470 203 379 79 379 c 2
79 394 m 2
 203 394 324 303 324 157 c 2
 324 131 l 9
 299 131 l 17
 299 156 l 2
 299 293 185 374 79 374 c 2
 55 374 l 9
 55 394 l 17
 79 394 l 2
EndSplineSet
EndChar

StartChar: multiply
Encoding: 215 215 162
Width: 630
Flags: MW
LayerCount: 2
Back
SplineSet
304 639 m 1
 329 639 l 1
 329 399 l 1
 554 399 l 1
 554 374 l 1
 329 374 l 1
 329 121 l 1
 304 121 l 1
 304 374 l 1
 79 374 l 1
 79 399 l 1
 304 399 l 1
 304 639 l 1
EndSplineSet
Fore
SplineSet
315 380 m 0
 439 380 550 471 550 617 c 2
 550 633 l 9
 525 633 l 17
 525 618 l 2
 525 481 421 400 315 400 c 3
 209 400 105 481 105 618 c 2
 105 633 l 9
 80 633 l 17
 80 617 l 2
 80 471 191 380 315 380 c 0
315 375 m 0
 421 375 525 294 525 157 c 2
 525 132 l 9
 550 132 l 17
 550 158 l 2
 550 304 439 395 315 395 c 3
 191 395 80 304 80 158 c 2
 80 132 l 9
 105 132 l 17
 105 157 l 2
 105 294 209 375 315 375 c 0
EndSplineSet
EndChar

StartChar: degree
Encoding: 176 176 163
Width: 450
Flags: MW
LayerCount: 2
Fore
SplineSet
100 688 m 0
 100 619 156 563 225 563 c 0
 294 563 350 619 350 688 c 0
 350 757 294 813 225 813 c 0
 156 813 100 757 100 688 c 0
75 688 m 0
 75 771 142 838 225 838 c 0
 308 838 375 771 375 688 c 0
 375 605 308 538 225 538 c 0
 142 538 75 605 75 688 c 0
EndSplineSet
EndChar

StartChar: minute
Encoding: 8242 8242 164
Width: 240
Flags: MW
LayerCount: 2
Fore
SplineSet
132.5 591 m 6
 132.5 577 121.5 566 107.5 566 c 13
 107.5 828 l 1
 132.5 828 l 1
 132.5 591 l 6
EndSplineSet
EndChar

StartChar: bullet
Encoding: 8226 8226 166
Width: 326
Flags: MW
LayerCount: 2
Fore
SplineSet
100 256 m 0
 100 291 128 319 163 319 c 0
 198 319 226 291 226 256 c 0
 226 221 198 193 163 193 c 0
 128 193 100 221 100 256 c 0
EndSplineSet
EndChar

StartChar: asterisk
Encoding: 42 42 167
Width: 442
Flags: MW
LayerCount: 2
Back
SplineSet
-85 523 m 0
 -85 599 -20 660 60 660 c 0
 140 660 205 599 205 523 c 0
 205 447 140 386 60 386 c 0
 -20 386 -85 447 -85 523 c 0
-35 522 m 0
 -35 587 19 640 85 640 c 0
 151 640 205 587 205 522 c 0
 205 457 151 404 85 404 c 0
 19 404 -35 457 -35 522 c 0
EndSplineSet
Fore
SplineSet
215 660 m 2
 219 660 l 9
 219 640 l 17
 215 640 l 2
 144 640 95 589 95 522 c 2
 95 517 l 9
 70 517 l 17
 70 523 l 2
 70 599 136 660 215 660 c 2
215 645 m 2
 136 645 70 706 70 782 c 2
 70 788 l 9
 95 788 l 17
 95 783 l 2
 95 716 144 665 215 665 c 2
 219 665 l 9
 219 645 l 17
 215 645 l 2
227 660 m 2
 306 660 372 599 372 523 c 2
 372 517 l 9
 347 517 l 17
 347 522 l 2
 347 589 298 640 227 640 c 2
 223 640 l 9
 223 660 l 17
 227 660 l 2
227 645 m 2
 223 645 l 9
 223 665 l 17
 227 665 l 2
 298 665 347 716 347 783 c 2
 347 788 l 9
 372 788 l 17
 372 782 l 2
 372 706 306 645 227 645 c 2
209 838 m 1
 233 838 l 1
 233 466 l 1
 209 466 l 1
 209 838 l 1
EndSplineSet
EndChar

StartChar: grave
Encoding: 96 96 168
Width: 330
Flags: MW
LayerCount: 2
Back
SplineSet
196 25 m 6
 451 25 l 5
 451 0 l 5
 196 0 l 6
 47 0 -59 105 -59 250 c 7
 -59 395 47 510 196 510 c 7
 345 510 451 395 451 250 c 7
 451 188.881835938 432.166992188 133.092773438 399.219726562 89 c 5
 365.774414062 89 l 5
 403.770507812 131.174804688 426 187.924804688 426 250 c 7
 426 379 330 485 196 485 c 7
 62 485 -34 379 -34 250 c 7
 -34 121 62 25 196 25 c 6
  Spiro
    196 25 [
    451 25 v
    451 0 v
    196 0 ]
    63.78 32.5298 o
    -26.0636 120.852 o
    -59 250 o
    -26.0636 381.736 o
    63.78 474.882 o
    196 510 o
    328.22 474.882 o
    418.064 381.736 o
    451 250 o
    444.909 190.951 o
    427.264 136.705 o
    399.22 89 v
    365.774 89 v
    398.249 135.64 o
    418.844 190.1 o
    426 250 o
    396.206 368.155 o
    315.083 452.802 o
    196 485 o
    76.917 452.802 o
    -4.206 368.155 o
    -34 250 o
    -4.206 134.433 o
    76.917 54.6097 o
    0 0 z
  EndSpiro
49 823 m 0
 49 945 148 1044 270 1044 c 0
 392 1044 491 945 491 823 c 0
 491 701 392 602 270 602 c 0
 148 602 49 701 49 823 c 0
74 823 m 0
 74 931 162 1019 270 1019 c 0
 378 1019 466 931 466 823 c 0
 466 715 378 627 270 627 c 0
 162 627 74 715 74 823 c 0
EndSplineSet
Fore
SplineSet
270 602 m 2
 148 602 49 701 49 823 c 2
 49 828 l 9
 74 828 l 17
 74 823 l 2
 74 715 162 627 270 627 c 2
 275 627 l 9
 275 602 l 17
 270 602 l 2
EndSplineSet
EndChar

StartChar: slash
Encoding: 47 47 169
Width: 402
Flags: MW
LayerCount: 2
Fore
SplineSet
348 830 m 1
 372 822 l 1
 54 -174 l 1
 30 -166 l 1
 348 830 l 1
EndSplineSet
EndChar

StartChar: percent
Encoding: 37 37 171
Width: 1078
Flags: HWO
LayerCount: 2
Fore
SplineSet
628 200 m 4
 628 98 711 15 813 15 c 4
 915 15 998 98 998 200 c 4
 998 302 915 385 813 385 c 4
 711 385 628 302 628 200 c 4
603 200 m 0
 603 316 697 410 813 410 c 0
 929 410 1023 316 1023 200 c 0
 1023 84 929 -10 813 -10 c 0
 697 -10 603 84 603 200 c 0
80 628 m 0
 80 526 163 443 265 443 c 0
 367 443 450 526 450 628 c 0
 450 730 367 813 265 813 c 0
 163 813 80 730 80 628 c 0
55 628 m 0
 55 744 149 838 265 838 c 0
 381 838 475 744 475 628 c 0
 475 512 381 418 265 418 c 0
 149 418 55 512 55 628 c 0
812 833 m 1
 833 819 l 1
 266 -7 l 1
 245 7 l 1
 812 833 l 1
EndSplineSet
EndChar
